<svg width="310" height="75" viewBox="0 0 310 75" fill="none" xmlns="http://www.w3.org/2000/svg">
<path fill-rule="evenodd" clip-rule="evenodd" d="M8.90572 24.2099C9.47711 23.8624 9.78763 23.6151 10.1428 23.4681C11.283 22.9963 12.4239 22.5173 13.5925 22.1192C21.3093 19.488 29.3282 18.1157 37.4148 17.0774C40.9304 16.6249 44.4843 16.4363 48.0033 16.006C53.726 15.3054 59.4396 15.568 65.1034 16.4995C70.1982 17.3375 75.2381 18.5265 80.3 19.5711C80.451 19.6027 80.581 19.7452 80.8964 19.9506C80.331 20.0269 79.982 20.0955 79.6279 20.1189C75.0191 20.4198 70.4878 21.2099 65.9622 22.0426C62.2495 22.7255 58.5119 23.2569 54.7099 23.2775C44.8152 23.3301 35.1468 24.7109 25.7689 27.7228C24.6121 28.0952 23.5755 28.0671 22.4119 27.736C18.6805 26.6754 14.9217 25.7103 11.17 24.7182C10.5199 24.5463 9.85614 24.4221 8.90572 24.2099ZM27.6506 29.1441C27.9667 28.9645 28.1012 28.8417 28.2566 28.8068C31.2152 28.1602 34.1547 27.4086 37.1419 26.9095C42.8257 25.9574 48.5757 25.6428 54.3569 25.644C56.7962 25.6448 59.2559 25.502 61.6649 25.1634C66.0818 24.5427 70.4644 23.7067 74.8679 22.9987C79.6032 22.2389 84.3776 21.8295 89.1879 21.931C90.4662 21.9578 91.7785 22.116 93.0125 22.4478C106.59 26.0938 119.92 30.4622 132.795 36.1267C133.207 36.307 133.607 36.5142 134.012 36.708C133.992 36.8254 133.972 36.9427 133.953 37.0604C133.276 37.0728 132.598 37.0875 131.921 37.0961C130.677 37.1095 129.431 37.1122 128.186 37.133C123.558 37.2112 119.038 38.1505 114.46 38.6245C111.03 38.9791 107.575 39.1821 104.125 39.2998C100.578 39.4202 97.0202 39.3014 93.4704 39.3798C85.5207 39.5567 77.6636 40.398 69.9295 42.2079C64.7842 43.4107 59.6765 44.697 54.7846 46.6771C53.6516 47.1356 52.5022 47.5537 51.3292 48.0032C50.9812 47.5966 50.6769 47.259 50.3935 46.9055C49.3024 45.5499 48.2143 44.1927 47.1326 42.8308C42.2786 36.7254 36.1969 32.2736 28.7431 29.6657C28.4219 29.5525 28.1254 29.3733 27.6506 29.1441ZM52.4214 49.2852C52.7826 49.1047 52.9327 49.001 53.1011 48.9507C55.9141 48.1176 58.6918 47.1427 61.5517 46.4956C66.8348 45.3009 72.1519 44.2277 77.4809 43.2326C84.3872 41.9426 91.4095 41.7421 98.4302 41.7864C105.231 41.8301 112.002 41.5808 118.708 40.5618C124.419 39.6942 130.151 39.2699 135.94 39.5257C138.994 39.6606 142.022 39.9036 144.741 41.5593C145.603 42.0838 146.572 42.4383 147.49 42.8759C156.249 47.0562 164.89 51.4546 173.045 56.7195C173.453 56.9839 173.842 57.2772 174.472 57.7204C173.876 57.7901 173.58 57.8597 173.282 57.8528C169.823 57.7806 166.364 57.6461 162.905 57.6255C156.141 57.5838 149.445 58.2451 142.871 59.7037C138.032 60.7767 133.261 62.1302 128.451 63.3234C123.06 64.6591 117.672 66.0029 112.259 67.2515C107.77 68.2875 103.347 69.4747 99.291 71.6647C97.7241 72.5101 96.1885 73.4086 94.6225 74.2554C92.3767 75.4718 89.9796 76.355 87.5632 77.2882C87.3289 77.0074 87.1388 76.8144 86.9875 76.5951C84.2132 72.5451 80.6739 69.2289 76.6908 66.3371C72.2429 63.1085 67.4305 60.4499 62.7005 57.6612C61.1897 56.7712 59.676 55.8829 58.2118 54.9224C55.9546 53.444 54.1576 51.5018 52.4214 49.2852ZM88.546 79.0572C89.259 78.7677 89.7944 78.5297 90.3462 78.3323C93.0664 77.3613 95.7426 76.2977 98.2294 74.8348C102.403 72.3799 106.988 70.9847 111.703 69.8681C119.027 68.1346 126.354 66.4006 133.628 64.4867C141.915 62.3058 150.29 60.6991 158.905 60.359C161.578 60.2528 164.254 60.1184 166.93 60.1491C170.48 60.1895 174.03 60.3554 177.578 60.5252C178.242 60.5571 179.061 60.6853 179.516 61.0869C180.249 61.733 181.121 62.115 181.886 62.6719C186.315 65.902 190.727 69.1562 195.139 72.4104C195.381 72.5895 195.568 72.8416 195.855 73.1372C195.35 73.3056 194.972 73.4555 194.581 73.5594C190.459 74.6618 186.312 75.68 182.218 76.8695C172.204 79.7783 162.401 83.2092 153.199 88.0805C145.334 92.2431 137.445 96.3644 129.619 100.596C124.674 103.269 119.955 106.293 115.698 109.952C115.33 110.27 114.927 110.55 114.557 110.833C114.289 110.682 114.12 110.607 113.973 110.5C109.81 107.448 105.739 104.283 101.958 100.777C99.9227 98.8908 98.0811 96.8333 96.7586 94.4172C94.0052 89.3832 91.3438 84.3016 88.546 79.0572ZM115.975 111.899C116.234 111.632 116.399 111.421 116.604 111.256C120.321 108.256 124.213 105.486 128.39 103.122C137.644 97.8869 147.145 93.0932 156.864 88.7386C169.882 82.9062 183.715 79.3119 197.472 75.5369C198.652 75.2131 199.541 75.5183 200.267 76.6756C199.783 77.0031 199.344 77.2472 198.969 77.5654C197.897 78.4714 196.683 79.278 195.83 80.3569C193.391 83.4392 190.881 86.5024 188.799 89.8161C183.563 98.1475 178.564 106.622 173.433 115.018C171.621 117.982 169.807 120.954 167.81 123.798C164.876 127.976 161.089 131.348 156.99 134.437C153.756 136.874 150.175 138.406 146.215 139.285C145.201 139.509 144.538 139.312 143.897 138.599C142.026 136.521 140.081 134.505 138.273 132.376C132.047 125.042 125.315 118.242 117.221 112.839C116.808 112.564 116.428 112.243 115.975 111.899ZM146.938 141.05C147.739 140.845 148.264 140.704 148.795 140.575C151.487 139.92 154.081 139.004 156.427 137.565C162.099 134.087 166.957 129.71 170.603 124.227C175.33 117.12 179.82 109.86 184.383 102.649C188.609 95.9746 192.473 89.0682 197.562 82.95C198.583 81.722 199.655 80.5698 201.02 79.7072C201.268 79.5501 201.57 79.4718 201.915 79.3296C201.998 79.6476 202.076 79.8567 202.106 80.0707C202.535 83.2062 202.994 86.3382 203.374 89.4786C204.416 98.0811 204.464 106.684 203.643 115.285C202.995 122.072 202.878 128.878 203.284 135.694C203.757 143.648 205.139 151.485 206.829 159.284C207.579 162.746 208.452 166.164 210.121 169.338C211.857 172.644 213.66 175.919 215.435 179.206C215.668 179.636 215.909 180.063 216.275 180.719C215.634 180.761 215.275 180.812 214.917 180.802C209.504 180.661 204.44 179.224 199.677 176.686C196.14 174.8 193.087 172.293 190.225 169.544C187.307 166.744 184.39 163.943 181.476 161.138C178.002 157.792 174.085 155.064 169.7 152.992C165.565 151.039 161.416 149.116 157.288 147.153C154.156 145.663 151.097 144.041 148.248 142.063C147.857 141.792 147.494 141.481 146.938 141.05ZM211.754 167.014C211.227 165.969 210.884 164.811 210.63 163.669C209.307 157.751 207.957 151.838 207.121 145.83C205.977 137.607 205.594 129.371 206.255 121.113C206.559 117.297 206.914 113.485 207.22 109.669C207.78 102.675 207.392 95.6941 206.573 88.7239C206.33 86.661 205.964 84.609 205.666 82.5517C205.605 82.132 205.595 81.7053 205.553 81.1916C208.53 82.6962 230.106 104.607 231.183 107.111C230.591 107.682 229.891 108.168 229.447 108.821C227.782 111.276 226.541 113.948 226.209 116.906C225.823 120.366 225.985 123.851 226.509 127.304C227.44 133.437 229.16 139.414 230.558 145.453C231.231 148.364 232.067 151.236 232.221 154.239C232.372 157.17 232.666 160.095 232.838 163.025C232.914 164.329 233.019 165.668 232.808 166.939C231.542 174.591 226.983 178.938 218.678 180.375C216.351 175.903 214.011 171.478 211.754 167.014ZM215.094 83.8068C214.802 83.5249 214.536 83.2196 214.256 82.9258C214.297 82.8387 214.337 82.7516 214.378 82.6646C214.804 82.7875 215.236 82.8942 215.658 83.037C217.188 83.5531 218.695 84.1545 220.248 84.5938C231.067 87.6573 241.506 91.7782 251.955 95.8565C263.254 100.267 273.933 105.941 284.498 111.825C286.065 112.698 287.549 113.726 289.03 114.742C291.879 116.699 294.697 118.698 297.529 120.678C298.011 121.014 298.498 121.341 299.059 121.726C298.317 122.963 297.35 123.868 296.112 124.355C294.59 124.952 293.007 125.469 291.399 125.786C288.371 126.386 285.449 125.679 282.581 124.671C276.888 122.67 271.545 119.988 266.397 116.869C262.141 114.289 257.812 111.818 253.434 109.444C251.295 108.284 249.022 107.308 246.718 106.508C243.349 105.338 239.898 104.442 236.284 105.38C236.041 105.444 235.677 105.262 235.435 105.099C235.176 104.924 234.996 104.637 234.784 104.397C228.476 97.2998 221.948 90.4035 215.094 83.8068ZM298.844 118.52C294.141 114.818 289.548 110.97 284.306 107.981C277.165 103.91 269.921 100.016 262.399 96.6828C250.439 91.3803 238.111 87.0159 225.642 83.0451C220.227 81.3201 214.795 79.6518 209.368 77.9636C208.437 77.6738 207.594 77.2855 207.102 76.3639C207.277 76.2505 207.382 76.1576 207.505 76.1082C207.716 76.0226 207.938 75.9611 208.157 75.8966C212.935 74.485 217.859 73.8203 222.819 73.355C228.452 72.8263 233.899 71.5902 239.121 69.5042C240.862 68.809 242.599 68.0791 244.254 67.2138C247.858 65.3259 250.912 62.8077 253.052 59.3351C253.234 59.3959 253.383 59.4119 253.485 59.4872C254.08 59.9213 254.674 60.3602 255.252 60.8174C260.209 64.7468 264.734 69.1161 269.007 73.7427C272.414 77.4338 276.187 80.7177 280.338 83.5931C282.005 84.7474 283.648 85.9429 285.238 87.1973C290.097 91.0327 294.175 95.5288 297.101 100.952C299.595 105.574 300.811 110.501 300.751 115.7C300.737 116.908 300.647 118.122 300.057 119.452C299.559 119.07 299.198 118.799 298.844 118.52ZM249.989 59.4492C249.794 59.6991 249.585 59.9388 249.361 60.1636C247.339 62.2071 245.105 63.9881 242.485 65.2602C237.646 67.6105 232.538 69.233 227.21 70.1396C223.448 70.7797 219.64 71.1703 215.858 71.7101C212.439 72.199 209.047 72.802 205.81 74.0271C204.425 74.5518 204.406 74.5256 203.285 73.1673C204.809 70.9614 206.267 68.6269 207.952 66.4636C210.662 62.9809 213.124 59.4014 214.429 55.1373C215.801 50.6541 217.218 46.1928 217.197 41.1902C217.661 41.3642 217.973 41.4399 218.243 41.5885C224.526 45.033 231.091 47.8862 237.698 50.6564C241.791 52.3735 245.783 54.3009 249.519 56.7085C251.036 57.6851 251.1 58.0269 249.989 59.4492ZM215.823 41.9065C215.03 46.3083 213.768 50.5759 212.168 54.7487C211.389 56.7812 210.335 58.6496 209.073 60.4357C206.547 64.0087 203.45 67.1899 201.43 71.114C201.343 71.2828 201.107 71.3779 200.964 71.4885C200.246 71.1426 200.188 70.5311 200.093 69.9573C199.532 66.6114 199.039 63.2556 198.417 59.9199C197.703 56.0991 197.078 52.2437 195.67 48.5835C194.399 45.2801 193.055 41.9942 191.573 38.7751C189.152 33.5193 186.411 28.4272 182.663 23.9138C182.467 23.678 182.33 23.3975 182.166 23.1386C182.237 23.0508 182.308 22.9638 182.379 22.8772C182.975 23.0902 183.575 23.2917 184.166 23.5161C189.194 25.4136 194.007 27.7672 198.674 30.3971C204.062 33.4323 209.389 36.5719 214.746 39.6628C216.075 40.4296 216.091 40.4237 215.823 41.9065ZM179.968 23.1478C181.61 25.9829 183.572 28.642 185.281 31.4433C187.898 35.7341 190.227 40.1717 191.863 44.9129C192.662 47.2259 193.513 49.5414 194.041 51.9169C194.946 55.9785 195.613 60.0887 196.384 64.1783C196.642 65.5458 196.913 66.9119 197.182 68.2986C197.01 68.3103 196.896 68.3534 196.834 68.316C196.483 68.1001 196.139 67.8722 195.802 67.635C189.617 63.289 183.425 58.9539 177.263 54.5801C176.53 54.0589 175.79 53.4209 175.332 52.6768C173.972 50.465 172.761 48.1655 171.473 45.912C169.934 43.2225 168.557 40.4232 166.784 37.8857C163.356 32.9785 159.83 28.1235 156.102 23.4288C152.421 18.7966 148.231 14.5966 143.433 11.0236C143.069 10.753 142.72 10.465 142.364 10.1852C142.412 10.0964 142.462 10.0069 142.511 9.91813C143.481 10.3256 144.468 10.6998 145.42 11.1461C151.926 14.1967 158.728 16.4058 165.667 18.2265C169.508 19.2355 173.35 20.2482 177.199 21.2267C178.389 21.5284 179.283 21.966 179.968 23.1478ZM138.822 10.4007C144.764 14.4599 149.796 19.4783 154.507 24.8174C155.534 25.9811 156.364 27.3079 157.272 28.5673C157.833 29.3454 158.342 30.1614 158.925 30.9225C163.392 36.7564 167.058 43.0487 170.304 49.5835C170.38 49.7332 170.417 49.9005 170.471 50.0595C170.403 50.1218 170.333 50.1838 170.264 50.246C168.781 49.417 167.306 48.5737 165.813 47.7611C157.094 43.0132 148.109 38.792 138.97 34.9151C135.948 33.6328 133.614 31.8656 131.72 29.2828C126.97 22.813 121.218 17.3007 114.606 12.6515C111.554 10.5072 108.493 8.37429 105.415 6.26815C104.67 5.75889 103.834 5.37746 102.766 4.78474C103.29 4.75134 103.501 4.7023 103.702 4.73047C108.933 5.46746 114.174 5.59391 119.438 5.32004C123.927 5.08684 128.372 5.5805 132.734 6.74543C133.201 6.87007 133.65 7.12241 134.06 7.38627C134.635 7.75396 135.141 8.22627 135.72 8.5849C136.74 9.214 137.837 9.72683 138.822 10.4007ZM105.445 8.37364C109.971 11.2459 114.015 14.7514 117.975 18.3327C121.81 21.8005 124.981 25.8468 128.348 29.7223C128.483 29.8775 128.571 30.0729 128.693 30.2682C128.52 30.3222 128.427 30.3871 128.359 30.3659C128.007 30.2596 127.658 30.1393 127.312 30.0111C112.42 24.5101 97.2716 19.9013 81.5637 17.3965C77.8942 16.811 74.7004 15.563 71.6968 13.4512C68.0518 10.8907 64.0296 9.03818 59.6192 8.10083C59.4977 8.07438 59.3904 7.97783 59.2771 7.91473C59.2779 7.81237 59.279 7.70884 59.2798 7.60648C61.0699 7.27291 62.86 6.93434 64.6516 6.60491C68.1775 5.95376 71.7211 5.37847 75.2271 4.64084C80.8765 3.45468 86.5466 2.57534 92.3699 3.21285C93.9245 3.38247 95.6011 3.3685 96.9848 3.97045C99.8974 5.23819 102.772 6.67631 105.445 8.37364ZM58.6724 9.70578C61.8912 11.0903 65.0229 12.6724 68.183 14.1893C68.5405 14.3606 68.8534 14.6204 69.187 14.8393C69.1474 14.9529 69.1089 15.0668 69.0693 15.1804C56.0107 12.7032 43.0834 13.9512 30.155 15.888C30.4283 15.601 30.7194 15.4087 31.0393 15.2888C38.1108 12.6407 45.1874 10.0077 52.7647 8.95264C53.3094 8.87718 53.8743 8.59933 54.3831 8.68721C55.8319 8.93827 57.3428 9.13285 58.6724 9.70578ZM0.519601 25.2895C0.620756 26.0299 1.14617 26.391 1.81228 26.5409C2.39475 26.6716 2.99902 26.7379 3.59583 26.7685C7.40215 26.9591 11.089 27.7455 14.7261 28.873C18.432 30.0221 22.1762 31.0484 25.8879 32.1802C33.3628 34.4584 39.5448 38.6022 44.388 44.6598C46.4192 47.2004 48.4989 49.7024 50.527 52.2447C52.9034 55.2224 55.793 57.5962 59.1212 59.5006C62.3253 61.3341 65.5239 63.1836 68.6446 65.1507C71.3351 66.845 73.9749 68.6313 76.5226 70.5251C80.5692 73.5334 83.8065 77.253 86.1692 81.6681C88.1262 85.324 90.1169 88.9637 92.0094 92.6505C94.4404 97.3872 97.7426 101.416 101.862 104.861C106.211 108.496 110.614 112.064 115.342 115.205C123.146 120.389 129.681 126.86 135.693 133.892C136.826 135.216 137.95 136.546 139.082 137.871C141.911 141.182 145.218 143.976 149.046 146.087C152.597 148.046 156.271 149.793 159.924 151.568C162.913 153.022 165.958 154.363 168.963 155.786C172.927 157.664 176.435 160.184 179.557 163.217C182.491 166.066 185.383 168.956 188.301 171.821C190.535 174.014 192.909 176.045 195.544 177.775C200.941 181.32 206.877 183.417 213.308 183.854C218.79 184.227 224.034 183.075 228.527 179.981C233.394 176.628 235.959 171.757 236.019 165.939C236.069 161.077 235.608 156.195 235.149 151.339C234.93 149.019 234.194 146.738 233.691 144.439C232.395 138.516 230.687 132.659 230.014 126.634C229.676 123.595 229.653 120.499 229.807 117.448C229.923 115.132 231.024 113.036 232.376 111.132C232.707 110.664 233.17 110.286 233.718 109.716C234.245 110.308 234.647 110.739 235.028 111.189C240.756 117.944 246.091 124.988 250.998 132.323C253.1 135.463 254.782 138.874 256.592 142.194C260.214 148.837 263.937 155.434 267.361 162.172C274.526 176.269 281.091 190.627 286.395 205.486C289.449 214.042 291.855 222.785 293.973 231.595C295.679 238.691 297.095 245.844 298.052 253.059C298.837 258.972 299.312 264.923 299.859 270.862C300.023 272.637 300.229 274.366 301.194 275.933C301.287 276.086 301.343 276.263 301.401 276.433C302.023 278.238 303.44 278.971 305.284 278.434C307.15 277.892 308.404 276.663 308.94 274.888C309.353 273.524 309.603 272.077 309.681 270.65C309.914 266.364 309.714 262.076 309.176 257.808C308.7 254.041 308.108 250.286 307.587 246.524C306.529 238.888 304.549 231.455 302.338 224.059C296.681 205.135 288.738 187.08 279.936 169.369C275.149 159.737 269.43 150.591 263.379 141.651C263.226 141.423 263.069 141.198 262.906 140.978C257.168 133.216 251.457 125.433 245.673 117.704C243.453 114.738 241.06 111.893 238.75 108.992C238.474 108.645 238.221 108.282 237.77 107.676C238.523 107.693 239.004 107.671 239.477 107.719C243.258 108.098 246.809 109.284 250.116 111.077C254.74 113.585 259.316 116.186 263.834 118.875C268.002 121.355 272.158 123.838 276.66 125.696C279.777 126.981 282.9 128.256 286.256 128.828C290.18 129.497 293.894 128.853 297.391 127.145C300.362 125.696 302.107 123.233 302.971 120.139C303.889 116.856 303.71 113.536 303.126 110.209C301.484 100.87 296.393 93.4411 289.38 87.1371C287.265 85.2366 284.959 83.5215 282.626 81.8773C278.12 78.7038 274.019 75.1122 270.267 71.1094C268.009 68.7014 265.654 66.3709 263.247 64.1031C255.842 57.1264 247.458 51.5897 237.952 47.7466C227.597 43.5587 217.753 38.4148 208.236 32.6186C204.219 30.1722 200.048 27.9707 195.913 25.7189C187.99 21.4022 179.491 18.6164 170.748 16.478C162.34 14.4225 154.094 11.8935 146.187 8.32015C143.501 7.10743 140.687 6.15142 137.884 5.21736C133.172 3.64796 128.327 2.67055 123.36 2.50244C121.057 2.42418 118.744 2.53495 116.441 2.6532C111.577 2.90309 106.767 2.33508 101.954 1.71027C98.6586 1.28277 95.3676 0.792685 92.0612 0.481227C87.9497 0.0953038 83.8389 0.277422 79.798 1.04799C73.6123 2.22794 67.4367 3.45806 61.282 4.77113C55.7578 5.94966 50.2396 7.16976 44.7728 8.56327C41.2647 9.45795 37.8097 10.584 34.4132 11.8165C29.0703 13.7537 23.6493 15.4417 18.1672 16.9638C14.3975 18.011 10.7821 19.4145 7.2913 21.1454C5.53535 22.0169 3.70322 22.7461 1.90679 23.5409C1.73868 23.6149 1.57209 23.6882 1.40848 23.7697C0.779667 24.086 0.420833 24.5598 0.519601 25.2895Z" fill="#50614A"/>
</svg>
