<svg width="199" height="211" viewBox="0 0 199 211" fill="none" xmlns="http://www.w3.org/2000/svg">
<mask id="mask0_92_1663" style="mask-type:alpha" maskUnits="userSpaceOnUse" x="-149" y="-74" width="348" height="285">
<path d="M-87.5373 -74L198.47 16.5518L137.008 210.681L-149 120.13L-87.5373 -74Z" fill="white"/>
</mask>
<g mask="url(#mask0_92_1663)">
<path fill-rule="evenodd" clip-rule="evenodd" d="M-103.741 56.9933C-101.272 63.2221 -98.29 69.2449 -95.4316 75.3148C-99.503 68.6949 -104.241 62.0151 -109.87 57.032C-115.862 51.7263 -120.313 45.486 -126.866 40.6537C-130.884 37.6916 -135.615 36.5853 -140.173 34.968C-136.214 32.7499 -132.155 30.6847 -128.141 28.705C-123.888 26.6082 -119.448 24.9476 -115.114 23.0439C-113.007 34.7682 -108.165 45.8356 -103.741 56.9933ZM188.756 15.4683C180.77 14.2185 172.951 12.1645 164.942 10.9936C148.727 8.62564 132.482 5.93125 116.201 4.0671C108.745 3.21379 101.221 2.58176 93.7889 1.52353C85.2112 0.303635 77.0223 -2.30563 68.3707 -3.13056C51.6485 -4.726 34.879 -4.81064 18.1267 -4.24406C5.22091 -3.80769 -7.88915 -3.11892 -20.7232 -1.77331C-34.7296 -0.30414 -48.2107 3.30037 -62.1486 5.16145C-68.6143 6.02305 -75.1456 5.88602 -81.6347 6.46627C-92.9486 7.47802 -104.489 10.2076 -115.29 13.4787C-131.6 18.4188 -146.468 26.5398 -161.138 34.855L-167.734 55.1015C-165.107 52.1711 -161.606 50.0503 -158.483 47.6622C-155.663 45.5052 -152.976 43.1851 -150.074 41.1304C-148.765 40.205 -147.401 39.3368 -146.035 38.4712C-143.769 42.9723 -140.451 46.9081 -137.415 51.4637C-131.719 60.0092 -127.278 69.2398 -122.35 78.1944C-120.297 81.9293 -117.788 85.3999 -115.067 88.7003C-110.117 94.7001 -105.547 101.259 -99.5225 106.262C-93.251 111.472 -87.4331 117.146 -81.2378 122.429C-79.741 123.709 -78.1996 125.073 -76.624 126.432C-74.8045 129.723 -72.7709 132.897 -70.4098 135.914C-68.1565 138.792 -65.7416 141.607 -63.2378 144.281C-61.7874 145.83 -59.9106 148.316 -57.7527 149.019C-53.6698 150.35 -54.1916 146.744 -54.7979 143.88C-56.0108 138.156 -56.5314 132.271 -57.9043 126.563C-60.0599 117.611 -63.5805 109.494 -67.1207 101.018C-70.9788 91.7811 -73.5916 82.0502 -76.8216 72.6004C-78.8408 66.6949 -81.9225 61.0989 -84.2016 55.2555C-85.7301 51.3366 -87.1497 47.2995 -89.6235 43.8367C-91.6191 41.0433 -92.9317 37.9764 -94.8061 35.1068C-96.6464 32.2911 -99.2969 30.8825 -101.648 28.5544C-104.106 26.1177 -106.812 23.5443 -108.843 20.7546C-108.92 20.6488 -108.981 20.563 -109.056 20.4596C-106.577 19.6906 -104.033 19.3387 -101.413 18.6043C-98.4001 17.7586 -95.3738 16.8391 -92.3613 15.877C-92.6896 17.3336 -93.0102 18.9438 -92.6443 20.1886C-91.9474 22.5575 -88.7231 25.3349 -87.3302 27.3298C-80.9248 36.5034 -75.3579 46.2531 -69.0632 55.5128C-63.7245 63.3674 -58.5154 71.2706 -52.6483 78.7696C-47.4085 85.4672 -40.6524 89.8675 -34.5419 95.6936C-29.9045 100.117 -26.0994 105.011 -21.1655 109.181C-17.4557 112.32 -13.7608 115.478 -10.088 118.658C-6.41147 121.843 -2.61445 124.851 1.19028 127.884C2.85586 129.211 5.20752 131.887 6.97705 132.498C7.54252 130.637 5.45144 128.35 4.60767 126.854C1.01179 120.476 -2.45647 114.141 -6.84148 108.237C-11.2661 102.281 -15.1567 96.1499 -18.2373 89.4202C-20.5867 84.2885 -22.4174 79.1333 -25.8144 74.5332C-30.7774 67.8119 -34.2457 60.6109 -38.32 53.4671C-39.815 50.8471 -41.5569 48.4096 -42.9318 45.7281C-44.2773 43.104 -45.6835 42.2437 -47.7897 40.3433C-49.874 38.4599 -51.5402 36.4614 -53.962 34.9011C-56.35 33.363 -58.0638 31.2565 -60.5156 29.8394C-63.3752 28.187 -66.5205 27.2161 -69.3104 25.4296C-71.9671 23.7285 -74.3799 22.4035 -77.2659 21.1361C-81.2538 19.3871 -84.426 16.8221 -87.8212 14.3908C-85.8539 13.732 -83.8956 13.0637 -81.9596 12.38C-79.6073 11.5492 -77.5227 11.4455 -75.17 10.9851C-69.4855 9.87282 -64.3593 8.46761 -58.4996 8.13136C-54.6131 7.9075 -50.7264 7.69368 -46.84 7.46482C-46.3292 14.4151 -45.9592 21.3906 -45.3098 28.3283C-44.7641 34.1458 -42.439 38.9395 -40.6146 44.4213C-38.7746 49.9563 -37.0415 55.6782 -34.1422 60.833C-30.5124 67.2816 -25.8008 73.0583 -21.2824 78.9017C-15.2456 86.71 -10.3814 95.2827 -2.85536 101.864C5.47831 109.151 14.1934 114.442 23.8554 119.811C26.5265 121.294 32.6026 126.76 35.8911 124.808C35.8828 123.693 34.972 123.513 34.4665 122.617C33.3836 120.709 32.5628 118.634 31.6284 116.629C29.3891 111.827 26.7587 107.266 23.9233 102.77C17.0843 91.9304 10.1391 81.1781 3.49323 70.2234C-5.25494 55.8057 -11.0134 39.2598 -22.1946 26.4176C-26.487 21.4859 -30.4228 16.0577 -34.9396 11.3504C-36.4568 9.76937 -37.7516 8.44962 -39.2012 7.55404C-38.3317 7.83265 -37.4904 8.30819 -36.5754 9.11588C-31.7685 13.3539 -27.7003 17.788 -23.5689 22.5393C-21.4351 24.9929 -18.4223 25.8654 -16.3637 28.546C-15.04 30.27 -14.2772 32.5436 -12.9304 34.1189C-11.1558 36.1948 -9.03716 37.7438 -7.36746 40.0057C-5.87338 42.0311 -4.49055 44.6769 -2.88474 46.4571C0.398297 50.0931 3.21547 53.7742 7.2494 56.6103C10.2242 58.7009 13.5265 61.9529 16.0187 64.5184C18.2399 66.8038 21.1984 68.4129 23.5145 70.6785C25.5495 72.6692 26.72 74.1289 29.2217 75.6199C31.6719 77.0797 33.6222 78.9722 35.9763 80.5526C37.9935 81.9052 40.3015 82.9048 42.4656 84.0034C45.4906 85.5422 47.7486 87.7114 50.653 89.3034C60.0807 94.4697 70.8843 98.4713 81.1965 101.539C83.701 102.283 87.9551 104.623 90.6092 104.056C91.5507 103.854 91.9269 102.811 93.0374 102.625C91.8377 100.875 89.5107 99.5108 88.0262 97.9932C84.8915 94.7876 81.8413 91.4495 78.9176 88.0618C70.6795 78.5139 61.5918 69.469 52.4376 60.7583C45.8688 54.5065 38.2181 49.6055 31.0845 44.0183C23.2447 37.8787 16.9951 30.4629 9.81587 23.6526C4.50835 18.6169 -1.50962 14.6894 -7.06896 9.98078C-7.78405 9.37585 -8.65747 8.35057 -9.64055 7.54791C-6.03766 8.47277 -2.39522 8.73446 1.08183 10.692C4.74483 12.7565 7.81661 13.9432 11.7696 15.2479C16.3754 16.7676 19.8 20.0964 23.389 23.1752C30.4233 29.2108 37.386 34.5895 45.1831 39.6364C50.0755 42.8024 54.6017 46.1613 60.1499 48.1437C65.3018 49.984 69.3137 51.4202 73.9928 54.2099C82.4703 59.2664 91.7155 60.0468 100.899 63.3362C111.821 67.2491 121.817 71.3153 133.433 72.7236C140.037 73.5245 146.757 74.749 153.359 75.3632C154.656 75.4832 160.18 76.0386 161.053 74.7726C158.741 70.3782 153.52 67.8736 149.322 65.6479C142.936 62.2646 136.91 58.567 130.753 54.8247C125.637 51.7141 120.98 48.4781 116.251 44.8493C110.622 40.532 103.924 37.6875 97.8971 33.9714C89.5316 28.8142 81.3513 26.8452 71.7796 24.4805C62.8356 22.2697 54.3352 18.1954 45.5936 15.2917C36.6254 12.3128 28.1992 8.24048 19.4116 4.78255C16.7717 3.7442 14.1347 2.43284 11.3452 2.21705C13.9605 2.25648 16.5822 2.70635 19.1986 2.92542C25.9996 3.49151 32.5858 5.43063 39.4175 5.79226C43.5494 6.0097 47.7739 5.84307 51.8391 6.74497C54.431 7.32151 56.8809 8.38936 59.5175 8.79747C64.5577 9.57475 68.4099 9.33007 73.1916 11.5645C79.1541 14.3538 85.8418 15.8486 92.0584 18.1637C98.2599 20.4725 104.506 21.2565 110.917 22.5209C115.336 23.3936 119.334 24.3472 123.878 24.544C126.724 24.6666 129.166 25.8795 131.897 26.6016C137.648 28.1203 143.769 25.7051 149.337 25.0223C151.698 24.7324 154.134 25.0105 156.495 24.7352C159.212 24.4201 161.597 23.0883 164.134 22.1899C168.863 20.5161 173.607 21.0517 178.494 20.3428C181.057 19.9721 183.498 19.1763 186.096 18.9494C187.945 18.7877 189.923 19.004 191.762 18.728C193.109 18.5269 198.206 17.705 198.47 16.5518C195.38 15.824 191.905 15.9625 188.756 15.4683Z" fill="#E0E833"/>
</g>
</svg>
