<svg width="200" height="87" viewBox="0 0 200 87" fill="none" xmlns="http://www.w3.org/2000/svg">
<path d="M51.2352 19.8588V65.0548H39.2527V40.7449L39.7692 32.2193L37.8066 42.1144L31.4366 61.0146H19.7297L13.3941 42.1144L11.4659 32.2193L11.948 40.7449V65.0548H0V19.8588H17.0095L24.8945 47.9694L25.6176 52.0439L26.3062 47.9694L34.1912 19.8588H51.2352Z" fill="white"/>
<path d="M59.1556 65.0548V36.9443H71.3102V65.0548H59.1556ZM65.3879 32.6301C63.5285 32.6301 61.9446 31.9796 60.6362 30.6785C59.3508 29.3774 58.708 27.8252 58.708 26.0219C58.708 24.2187 59.3508 22.6551 60.6362 21.3311C61.9446 20.0072 63.5285 19.3453 65.3879 19.3453C66.6045 19.3453 67.7178 19.6534 68.7278 20.2697C69.7378 20.8632 70.5527 21.6621 71.1725 22.6665C71.7923 23.6708 72.1022 24.7893 72.1022 26.0219C72.1022 27.8252 71.4365 29.3774 70.1051 30.6785C68.7967 31.9796 67.2243 32.6301 65.3879 32.6301Z" fill="white"/>
<path d="M97.886 36.9443H111.487L98.609 50.3661L113.002 65.0548H99.0567L89.0025 54.201V65.0548H76.8135V17.9414H89.0025V46.1889L97.886 36.9443Z" fill="white"/>
<path d="M128.835 65.8766C125.667 65.8766 122.855 65.2489 120.399 63.9934C117.943 62.738 116.014 61.0032 114.614 58.789C113.214 56.5521 112.514 53.9841 112.514 51.0852C112.514 48.1862 113.214 45.6183 114.614 43.3813C116.014 41.1215 117.943 39.3525 120.399 38.0742C122.855 36.7731 125.667 36.1226 128.835 36.1226C131.979 36.1226 134.757 36.7731 137.167 38.0742C139.6 39.3525 141.494 41.1215 142.849 43.3813C144.226 45.6183 144.914 48.1862 144.914 51.0852C144.914 53.9841 144.226 56.5521 142.849 58.789C141.494 61.0032 139.6 62.738 137.167 63.9934C134.757 65.2489 131.979 65.8766 128.835 65.8766ZM128.835 55.9814C129.776 55.9814 130.591 55.7874 131.279 55.3993C131.968 54.9885 132.496 54.4064 132.863 53.6531C133.23 52.8999 133.414 52.021 133.414 51.0167C133.414 50.0352 133.23 49.1678 132.863 48.4145C132.496 47.6612 131.968 47.0792 131.279 46.6683C130.591 46.2346 129.776 46.0177 128.835 46.0177C127.871 46.0177 127.044 46.2346 126.355 46.6683C125.667 47.0792 125.127 47.6612 124.737 48.4145C124.347 49.1678 124.152 50.0352 124.152 51.0167C124.152 52.021 124.347 52.8999 124.737 53.6531C125.127 54.4064 125.667 54.9885 126.355 55.3993C127.044 55.7874 127.871 55.9814 128.835 55.9814Z" fill="white"/>
<path d="M161.99 65.0548H149.767V17.9414H161.99V65.0548Z" fill="white"/>
<path d="M182.904 65.8766C179.736 65.8766 176.924 65.2489 174.468 63.9934C172.012 62.738 170.084 61.0032 168.683 58.789C167.283 56.5521 166.583 53.9841 166.583 51.0852C166.583 48.1862 167.283 45.6183 168.683 43.3813C170.084 41.1215 172.012 39.3525 174.468 38.0742C176.924 36.7731 179.736 36.1226 182.904 36.1226C186.049 36.1226 188.826 36.7731 191.237 38.0742C193.67 39.3525 195.564 41.1215 196.918 43.3813C198.295 45.6183 198.984 48.1862 198.984 51.0852C198.984 53.9841 198.295 56.5521 196.918 58.789C195.564 61.0032 193.67 62.738 191.237 63.9934C188.826 65.2489 186.049 65.8766 182.904 65.8766ZM182.904 55.9814C183.845 55.9814 184.66 55.7874 185.349 55.3993C186.037 54.9885 186.565 54.4064 186.933 53.6531C187.3 52.8999 187.483 52.021 187.483 51.0167C187.483 50.0352 187.3 49.1678 186.933 48.4145C186.565 47.6612 186.037 47.0792 185.349 46.6683C184.66 46.2346 183.845 46.0177 182.904 46.0177C181.94 46.0177 181.113 46.2346 180.425 46.6683C179.736 47.0792 179.197 47.6612 178.807 48.4145C178.416 49.1678 178.221 50.0352 178.221 51.0167C178.221 52.021 178.416 52.8999 178.807 53.6531C179.197 54.4064 179.736 54.9885 180.425 55.3993C181.113 55.7874 181.94 55.9814 182.904 55.9814Z" fill="white"/>
<path d="M133.398 86.7398V71.5603H135.972L141.14 81.8173L146.286 71.5603H148.882V86.7398H146.701V75.3552L141.969 84.6147H140.29L135.579 75.3769V86.7398H133.398Z" fill="#A2DE38"/>
<path d="M155.586 87C154.685 87 153.936 86.8482 153.34 86.5446C152.744 86.241 152.301 85.8362 152.01 85.3303C151.719 84.8098 151.574 84.2532 151.574 83.6605C151.574 82.9377 151.763 82.3233 152.141 81.8173C152.519 81.2969 153.057 80.8993 153.755 80.6246C154.453 80.35 155.288 80.2126 156.263 80.2126H159.119C159.119 79.5765 159.025 79.0489 158.836 78.6296C158.647 78.2104 158.363 77.8996 157.985 77.6972C157.622 77.4803 157.157 77.3719 156.59 77.3719C155.935 77.3719 155.376 77.5309 154.91 77.849C154.445 78.1525 154.154 78.6079 154.038 79.2151H151.857C151.945 78.4489 152.206 77.7984 152.643 77.2635C153.093 76.7141 153.667 76.2949 154.365 76.0057C155.063 75.7021 155.805 75.5504 156.59 75.5504C157.622 75.5504 158.487 75.7311 159.185 76.0925C159.882 76.4539 160.406 76.9671 160.755 77.6321C161.118 78.2827 161.3 79.0633 161.3 79.9741V86.7398H159.403L159.228 84.8966C159.068 85.1857 158.879 85.4604 158.661 85.7206C158.443 85.9808 158.182 86.2049 157.876 86.3928C157.585 86.5808 157.244 86.7253 156.851 86.8265C156.473 86.9422 156.052 87 155.586 87ZM156.001 85.2435C156.466 85.2435 156.888 85.1496 157.266 84.9616C157.644 84.7737 157.963 84.5207 158.225 84.2026C158.501 83.8701 158.705 83.5015 158.836 83.0967C158.981 82.6775 159.061 82.251 159.076 81.8173V81.7522H156.481C155.855 81.7522 155.347 81.8318 154.954 81.9908C154.576 82.1353 154.3 82.3377 154.125 82.598C153.951 82.8582 153.864 83.1618 153.864 83.5087C153.864 83.8701 153.944 84.181 154.104 84.4412C154.278 84.6869 154.525 84.8821 154.845 85.0267C155.165 85.1712 155.55 85.2435 156.001 85.2435Z" fill="#A2DE38"/>
<path d="M164.236 86.7398V75.8106H166.417V86.7398H164.236ZM165.348 73.7505C164.927 73.7505 164.578 73.6204 164.301 73.3602C164.04 73.1 163.909 72.7674 163.909 72.3627C163.909 71.9723 164.04 71.6543 164.301 71.4085C164.578 71.1483 164.927 71.0182 165.348 71.0182C165.755 71.0182 166.097 71.1483 166.373 71.4085C166.649 71.6543 166.788 71.9723 166.788 72.3627C166.788 72.7674 166.649 73.1 166.373 73.3602C166.097 73.6204 165.755 73.7505 165.348 73.7505Z" fill="#A2DE38"/>
<path d="M174.071 86.7398C173.373 86.7398 172.77 86.6314 172.261 86.4145C171.752 86.1977 171.36 85.8362 171.083 85.3303C170.807 84.8243 170.669 84.1376 170.669 83.2702V77.6538H168.772V75.8106H170.669L170.931 73.0783H172.85V75.8106H175.968V77.6538H172.85V83.2919C172.85 83.9135 172.981 84.34 173.242 84.5713C173.504 84.7881 173.955 84.8966 174.594 84.8966H175.859V86.7398H174.071Z" fill="#A2DE38"/>
<path d="M182.625 87C181.695 87 180.881 86.8482 180.183 86.5446C179.485 86.241 178.933 85.8146 178.526 85.2652C178.119 84.7159 177.871 84.0725 177.784 83.3352H180.009C180.081 83.6822 180.219 84.0003 180.423 84.2894C180.641 84.5785 180.932 84.8098 181.295 84.9833C181.673 85.1568 182.117 85.2435 182.625 85.2435C183.105 85.2435 183.498 85.1785 183.803 85.0484C184.123 84.9038 184.355 84.7159 184.501 84.4846C184.646 84.2388 184.719 83.9786 184.719 83.7039C184.719 83.2991 184.617 82.9955 184.414 82.7931C184.225 82.5763 183.934 82.41 183.541 82.2944C183.163 82.1643 182.705 82.0486 182.167 81.9474C181.659 81.8607 181.164 81.745 180.685 81.6005C180.219 81.4414 179.798 81.2463 179.42 81.015C179.056 80.7837 178.766 80.4945 178.547 80.1476C178.329 79.7861 178.22 79.3452 178.22 78.8248C178.22 78.2031 178.388 77.6466 178.722 77.155C179.056 76.6491 179.529 76.2587 180.139 75.984C180.765 75.6949 181.499 75.5504 182.342 75.5504C183.563 75.5504 184.544 75.8395 185.286 76.4178C186.027 76.996 186.463 77.8128 186.594 78.8681H184.479C184.421 78.3766 184.203 78.0007 183.825 77.7405C183.447 77.4659 182.945 77.3285 182.32 77.3285C181.695 77.3285 181.215 77.4514 180.881 77.6972C180.546 77.9429 180.379 78.2682 180.379 78.673C180.379 78.9332 180.474 79.1645 180.663 79.3669C180.852 79.5693 181.128 79.7428 181.491 79.8873C181.869 80.0175 182.327 80.1403 182.865 80.256C183.636 80.4006 184.326 80.5813 184.937 80.7981C185.548 81.015 186.035 81.333 186.398 81.7522C186.761 82.1715 186.943 82.7714 186.943 83.5521C186.958 84.2316 186.783 84.8315 186.42 85.3519C186.071 85.8724 185.569 86.2772 184.915 86.5663C184.275 86.8554 183.512 87 182.625 87Z" fill="#A2DE38"/>
<path d="M194.526 87C193.494 87 192.564 86.7615 191.735 86.2844C190.921 85.8073 190.274 85.1423 189.794 84.2894C189.329 83.422 189.096 82.4245 189.096 81.2969C189.096 80.1403 189.336 79.1356 189.816 78.2827C190.296 77.4153 190.95 76.743 191.779 76.266C192.607 75.7889 193.538 75.5504 194.57 75.5504C195.617 75.5504 196.547 75.7889 197.361 76.266C198.175 76.743 198.815 77.408 199.28 78.261C199.76 79.1139 200 80.1186 200 81.2752C200 82.4317 199.76 83.4364 199.28 84.2894C198.815 85.1423 198.168 85.8073 197.34 86.2844C196.511 86.7615 195.573 87 194.526 87ZM194.526 85.1351C195.122 85.1351 195.66 84.9905 196.14 84.7014C196.634 84.4123 197.027 83.9858 197.318 83.422C197.623 82.8437 197.776 82.1281 197.776 81.2752C197.776 80.4222 197.63 79.7139 197.34 79.1501C197.049 78.5718 196.656 78.1381 196.162 77.849C195.682 77.5598 195.152 77.4153 194.57 77.4153C193.989 77.4153 193.451 77.5598 192.956 77.849C192.462 78.1381 192.062 78.5718 191.757 79.1501C191.466 79.7139 191.321 80.4222 191.321 81.2752C191.321 82.1281 191.466 82.8437 191.757 83.422C192.062 83.9858 192.455 84.4123 192.935 84.7014C193.429 84.9905 193.959 85.1351 194.526 85.1351Z" fill="#A2DE38"/>
<path d="M121.7 33.3412C119.801 35.1113 116.488 34.1041 114.379 31.7245C111.579 28.565 110.565 22.5811 111.468 17.2449L121.7 33.3412ZM123.908 31.3008C122.678 30.7827 117.74 28.2545 119.695 19.2796C116.563 17.2376 112.067 15.702 111.78 15.3689C111.78 15.3689 111.791 15.9088 111.647 16.9673L122.278 32.7061C122.542 32.1899 123.242 31.778 123.908 31.3008ZM120.55 25.979C121.598 29.4018 123.453 29.8064 124.82 30.6528L138.701 1.20319H138.866L125.978 31.6309C127.285 32.853 129.028 34.0817 131.645 33.4969C142.432 31.5861 144.895 14.3277 139.06 0C132.198 4.66739 127.062 7.18411 123.712 12.1251C121.107 15.9682 119.085 21.3802 120.55 25.979Z" fill="#648512"/>
</svg>
