<svg width="174" height="77" viewBox="0 0 174 77" fill="none" xmlns="http://www.w3.org/2000/svg">
<path d="M44.8 17.4V57H34.36V35.7L34.81 28.23L33.1 36.9L27.55 53.46H17.35L11.83 36.9L10.15 28.23L10.57 35.7V57H0.160004V17.4H14.98L21.85 42.03L22.48 45.6L23.08 42.03L29.95 17.4H44.8Z" fill="#393D37"/>
<path d="M51.7009 57V32.37H62.2909V57H51.7009ZM57.1309 28.59C55.5109 28.59 54.1309 28.02 52.9909 26.88C51.8709 25.74 51.3109 24.38 51.3109 22.8C51.3109 21.22 51.8709 19.85 52.9909 18.69C54.1309 17.53 55.5109 16.95 57.1309 16.95C58.1909 16.95 59.1609 17.22 60.0409 17.76C60.9209 18.28 61.6309 18.98 62.1709 19.86C62.7109 20.74 62.9809 21.72 62.9809 22.8C62.9809 24.38 62.4009 25.74 61.2409 26.88C60.1009 28.02 58.7309 28.59 57.1309 28.59Z" fill="#393D37"/>
<path d="M85.4458 32.37H97.2958L86.0758 44.13L98.6158 57H86.4658L77.7058 47.49V57H67.0858V15.72H77.7058V40.47L85.4458 32.37Z" fill="#393D37"/>
<path d="M112.411 57.72C109.651 57.72 107.201 57.17 105.061 56.07C102.921 54.97 101.241 53.45 100.021 51.51C98.8006 49.55 98.1906 47.3 98.1906 44.76C98.1906 42.22 98.8006 39.97 100.021 38.01C101.241 36.03 102.921 34.48 105.061 33.36C107.201 32.22 109.651 31.65 112.411 31.65C115.151 31.65 117.571 32.22 119.671 33.36C121.791 34.48 123.441 36.03 124.621 38.01C125.821 39.97 126.421 42.22 126.421 44.76C126.421 47.3 125.821 49.55 124.621 51.51C123.441 53.45 121.791 54.97 119.671 56.07C117.571 57.17 115.151 57.72 112.411 57.72ZM112.411 49.05C113.231 49.05 113.941 48.88 114.541 48.54C115.141 48.18 115.601 47.67 115.921 47.01C116.241 46.35 116.401 45.58 116.401 44.7C116.401 43.84 116.241 43.08 115.921 42.42C115.601 41.76 115.141 41.25 114.541 40.89C113.941 40.51 113.231 40.32 112.411 40.32C111.571 40.32 110.851 40.51 110.251 40.89C109.651 41.25 109.181 41.76 108.841 42.42C108.501 43.08 108.331 43.84 108.331 44.7C108.331 45.58 108.501 46.35 108.841 47.01C109.181 47.67 109.651 48.18 110.251 48.54C110.851 48.88 111.571 49.05 112.411 49.05Z" fill="#393D37"/>
<path d="M141.298 57H130.648V15.72H141.298V57Z" fill="#393D37"/>
<path d="M159.52 57.72C156.76 57.72 154.31 57.17 152.17 56.07C150.03 54.97 148.35 53.45 147.13 51.51C145.91 49.55 145.3 47.3 145.3 44.76C145.3 42.22 145.91 39.97 147.13 38.01C148.35 36.03 150.03 34.48 152.17 33.36C154.31 32.22 156.76 31.65 159.52 31.65C162.26 31.65 164.68 32.22 166.78 33.36C168.9 34.48 170.55 36.03 171.73 38.01C172.93 39.97 173.53 42.22 173.53 44.76C173.53 47.3 172.93 49.55 171.73 51.51C170.55 53.45 168.9 54.97 166.78 56.07C164.68 57.17 162.26 57.72 159.52 57.72ZM159.52 49.05C160.34 49.05 161.05 48.88 161.65 48.54C162.25 48.18 162.71 47.67 163.03 47.01C163.35 46.35 163.51 45.58 163.51 44.7C163.51 43.84 163.35 43.08 163.03 42.42C162.71 41.76 162.25 41.25 161.65 40.89C161.05 40.51 160.34 40.32 159.52 40.32C158.68 40.32 157.96 40.51 157.36 40.89C156.76 41.25 156.29 41.76 155.95 42.42C155.61 43.08 155.44 43.84 155.44 44.7C155.44 45.58 155.61 46.35 155.95 47.01C156.29 47.67 156.76 48.18 157.36 48.54C157.96 48.88 158.68 49.05 159.52 49.05Z" fill="#393D37"/>
<path d="M113.387 76V62.7H115.629L120.132 71.687L124.616 62.7H126.877V76H124.977V66.025L120.854 74.138H119.391L115.287 66.044V76H113.387Z" fill="#7CB518"/>
<path d="M132.719 76.228C131.934 76.228 131.281 76.095 130.762 75.829C130.243 75.563 129.856 75.2083 129.603 74.765C129.35 74.309 129.223 73.8213 129.223 73.302C129.223 72.6687 129.388 72.1303 129.717 71.687C130.046 71.231 130.515 70.8827 131.123 70.642C131.731 70.4013 132.459 70.281 133.308 70.281H135.797C135.797 69.7237 135.715 69.2613 135.55 68.894C135.385 68.5267 135.138 68.2543 134.809 68.077C134.492 67.887 134.087 67.792 133.593 67.792C133.023 67.792 132.535 67.9313 132.13 68.21C131.725 68.476 131.471 68.875 131.37 69.407H129.47C129.546 68.7357 129.774 68.1657 130.154 67.697C130.547 67.2157 131.047 66.8483 131.655 66.595C132.263 66.329 132.909 66.196 133.593 66.196C134.492 66.196 135.246 66.3543 135.854 66.671C136.462 66.9877 136.918 67.4373 137.222 68.02C137.539 68.59 137.697 69.274 137.697 70.072V76H136.044L135.892 74.385C135.753 74.6383 135.588 74.879 135.398 75.107C135.208 75.335 134.98 75.5313 134.714 75.696C134.461 75.8607 134.163 75.9873 133.821 76.076C133.492 76.1773 133.124 76.228 132.719 76.228ZM133.08 74.689C133.485 74.689 133.853 74.6067 134.182 74.442C134.511 74.2773 134.79 74.0557 135.018 73.777C135.259 73.4857 135.436 73.1627 135.55 72.808C135.677 72.4407 135.746 72.067 135.759 71.687V71.63H133.498C132.953 71.63 132.51 71.6997 132.168 71.839C131.839 71.9657 131.598 72.143 131.446 72.371C131.294 72.599 131.218 72.865 131.218 73.169C131.218 73.4857 131.288 73.758 131.427 73.986C131.579 74.2013 131.794 74.3723 132.073 74.499C132.352 74.6257 132.687 74.689 133.08 74.689Z" fill="#7CB518"/>
<path d="M140.255 76V66.424H142.155V76H140.255ZM141.224 64.619C140.857 64.619 140.553 64.505 140.312 64.277C140.084 64.049 139.97 63.7577 139.97 63.403C139.97 63.061 140.084 62.7823 140.312 62.567C140.553 62.339 140.857 62.225 141.224 62.225C141.579 62.225 141.876 62.339 142.117 62.567C142.358 62.7823 142.478 63.061 142.478 63.403C142.478 63.7577 142.358 64.049 142.117 64.277C141.876 64.505 141.579 64.619 141.224 64.619Z" fill="#7CB518"/>
<path d="M148.824 76C148.216 76 147.69 75.905 147.247 75.715C146.804 75.525 146.462 75.2083 146.221 74.765C145.98 74.3217 145.86 73.72 145.86 72.96V68.039H144.207V66.424H145.86L146.088 64.03H147.76V66.424H150.477V68.039H147.76V72.979C147.76 73.5237 147.874 73.8973 148.102 74.1C148.33 74.29 148.723 74.385 149.28 74.385H150.382V76H148.824Z" fill="#7CB518"/>
<path d="M156.277 76.228C155.467 76.228 154.757 76.095 154.149 75.829C153.541 75.563 153.06 75.1893 152.705 74.708C152.351 74.2267 152.135 73.663 152.059 73.017H153.997C154.061 73.321 154.181 73.5997 154.358 73.853C154.548 74.1063 154.802 74.309 155.118 74.461C155.448 74.613 155.834 74.689 156.277 74.689C156.695 74.689 157.037 74.632 157.303 74.518C157.582 74.3913 157.785 74.2267 157.911 74.024C158.038 73.8087 158.101 73.5807 158.101 73.34C158.101 72.9853 158.013 72.7193 157.835 72.542C157.671 72.352 157.417 72.2063 157.075 72.105C156.746 71.991 156.347 71.8897 155.878 71.801C155.435 71.725 155.004 71.6237 154.586 71.497C154.181 71.3577 153.814 71.1867 153.484 70.984C153.168 70.7813 152.914 70.528 152.724 70.224C152.534 69.9073 152.439 69.521 152.439 69.065C152.439 68.5203 152.585 68.0327 152.876 67.602C153.168 67.1587 153.579 66.8167 154.111 66.576C154.656 66.3227 155.296 66.196 156.03 66.196C157.094 66.196 157.949 66.4493 158.595 66.956C159.241 67.4627 159.621 68.1783 159.735 69.103H157.892C157.842 68.6723 157.652 68.343 157.322 68.115C156.993 67.8743 156.556 67.754 156.011 67.754C155.467 67.754 155.049 67.8617 154.757 68.077C154.466 68.2923 154.32 68.5773 154.32 68.932C154.32 69.16 154.403 69.3627 154.567 69.54C154.732 69.7173 154.973 69.8693 155.289 69.996C155.619 70.11 156.018 70.2177 156.486 70.319C157.158 70.4457 157.759 70.604 158.291 70.794C158.823 70.984 159.248 71.2627 159.564 71.63C159.881 71.9973 160.039 72.523 160.039 73.207C160.052 73.8023 159.9 74.328 159.583 74.784C159.279 75.24 158.842 75.5947 158.272 75.848C157.715 76.1013 157.05 76.228 156.277 76.228Z" fill="#7CB518"/>
<path d="M166.646 76.228C165.747 76.228 164.936 76.019 164.214 75.601C163.505 75.183 162.941 74.6003 162.523 73.853C162.118 73.093 161.915 72.219 161.915 71.231C161.915 70.2177 162.124 69.3373 162.542 68.59C162.96 67.83 163.53 67.241 164.252 66.823C164.974 66.405 165.785 66.196 166.684 66.196C167.596 66.196 168.407 66.405 169.116 66.823C169.826 67.241 170.383 67.8237 170.788 68.571C171.206 69.3183 171.415 70.1987 171.415 71.212C171.415 72.2253 171.206 73.1057 170.788 73.853C170.383 74.6003 169.819 75.183 169.097 75.601C168.375 76.019 167.558 76.228 166.646 76.228ZM166.646 74.594C167.166 74.594 167.634 74.4673 168.052 74.214C168.483 73.9607 168.825 73.587 169.078 73.093C169.344 72.5863 169.477 71.9593 169.477 71.212C169.477 70.4647 169.351 69.844 169.097 69.35C168.844 68.8433 168.502 68.4633 168.071 68.21C167.653 67.9567 167.191 67.83 166.684 67.83C166.178 67.83 165.709 67.9567 165.278 68.21C164.848 68.4633 164.499 68.8433 164.233 69.35C163.98 69.844 163.853 70.4647 163.853 71.212C163.853 71.9593 163.98 72.5863 164.233 73.093C164.499 73.587 164.841 73.9607 165.259 74.214C165.69 74.4673 166.152 74.594 166.646 74.594Z" fill="#7CB518"/>
<path d="M106.194 29.2131C104.54 30.7639 101.653 29.8815 99.8157 27.7965C97.3761 25.0282 96.4929 19.7852 97.2793 15.1097L106.194 29.2131ZM108.118 27.4253C107.047 26.9713 102.744 24.7561 104.448 16.8924C101.718 15.1033 97.8017 13.7578 97.551 13.466C97.551 13.466 97.5613 13.939 97.4358 14.8665L106.698 28.6565C106.928 28.2043 107.538 27.8434 108.118 27.4253ZM105.192 22.7624C106.106 25.7614 107.722 26.1159 108.913 26.8575L121.007 1.05422H121.15L109.921 27.7145C111.06 28.7853 112.579 29.8618 114.859 29.3494C124.258 27.6752 126.404 12.5537 121.32 0C115.341 4.08949 110.867 6.2946 107.948 10.6239C105.677 13.9911 103.916 18.733 105.192 22.7624Z" fill="#5C8001"/>
</svg>
