<svg width="178" height="82" viewBox="0 0 178 82" fill="none" xmlns="http://www.w3.org/2000/svg">
<path d="M46.8 17.4V57H36.36V35.7L36.81 28.23L35.1 36.9L29.55 53.46H19.35L13.83 36.9L12.15 28.23L12.57 35.7V57H2.16V17.4H16.98L23.85 42.03L24.48 45.6L25.08 42.03L31.95 17.4H46.8ZM53.7009 57V32.37H64.2909V57H53.7009ZM59.1309 28.59C57.5109 28.59 56.1309 28.02 54.9909 26.88C53.8709 25.74 53.3109 24.38 53.3109 22.8C53.3109 21.22 53.8709 19.85 54.9909 18.69C56.1309 17.53 57.5109 16.95 59.1309 16.95C60.1909 16.95 61.1609 17.22 62.0409 17.76C62.9209 18.28 63.6309 18.98 64.1709 19.86C64.7109 20.74 64.9809 21.72 64.9809 22.8C64.9809 24.38 64.4009 25.74 63.2409 26.88C62.1009 28.02 60.7309 28.59 59.1309 28.59ZM87.4458 32.37H99.2958L88.0758 44.13L100.616 57H88.4658L79.7058 47.49V57H69.0858V15.72H79.7058V40.47L87.4458 32.37ZM114.411 57.72C111.651 57.72 109.201 57.17 107.061 56.07C104.921 54.97 103.241 53.45 102.021 51.51C100.801 49.55 100.191 47.3 100.191 44.76C100.191 42.22 100.801 39.97 102.021 38.01C103.241 36.03 104.921 34.48 107.061 33.36C109.201 32.22 111.651 31.65 114.411 31.65C117.151 31.65 119.571 32.22 121.671 33.36C123.791 34.48 125.441 36.03 126.621 38.01C127.821 39.97 128.421 42.22 128.421 44.76C128.421 47.3 127.821 49.55 126.621 51.51C125.441 53.45 123.791 54.97 121.671 56.07C119.571 57.17 117.151 57.72 114.411 57.72ZM114.411 49.05C115.231 49.05 115.941 48.88 116.541 48.54C117.141 48.18 117.601 47.67 117.921 47.01C118.241 46.35 118.401 45.58 118.401 44.7C118.401 43.84 118.241 43.08 117.921 42.42C117.601 41.76 117.141 41.25 116.541 40.89C115.941 40.51 115.231 40.32 114.411 40.32C113.571 40.32 112.851 40.51 112.251 40.89C111.651 41.25 111.181 41.76 110.841 42.42C110.501 43.08 110.331 43.84 110.331 44.7C110.331 45.58 110.501 46.35 110.841 47.01C111.181 47.67 111.651 48.18 112.251 48.54C112.851 48.88 113.571 49.05 114.411 49.05ZM143.298 57H132.648V15.72H143.298V57ZM161.52 57.72C158.76 57.72 156.31 57.17 154.17 56.07C152.03 54.97 150.35 53.45 149.13 51.51C147.91 49.55 147.3 47.3 147.3 44.76C147.3 42.22 147.91 39.97 149.13 38.01C150.35 36.03 152.03 34.48 154.17 33.36C156.31 32.22 158.76 31.65 161.52 31.65C164.26 31.65 166.68 32.22 168.78 33.36C170.9 34.48 172.55 36.03 173.73 38.01C174.93 39.97 175.53 42.22 175.53 44.76C175.53 47.3 174.93 49.55 173.73 51.51C172.55 53.45 170.9 54.97 168.78 56.07C166.68 57.17 164.26 57.72 161.52 57.72ZM161.52 49.05C162.34 49.05 163.05 48.88 163.65 48.54C164.25 48.18 164.71 47.67 165.03 47.01C165.35 46.35 165.51 45.58 165.51 44.7C165.51 43.84 165.35 43.08 165.03 42.42C164.71 41.76 164.25 41.25 163.65 40.89C163.05 40.51 162.34 40.32 161.52 40.32C160.68 40.32 159.96 40.51 159.36 40.89C158.76 41.25 158.29 41.76 157.95 42.42C157.61 43.08 157.44 43.84 157.44 44.7C157.44 45.58 157.61 46.35 157.95 47.01C158.29 47.67 158.76 48.18 159.36 48.54C159.96 48.88 160.68 49.05 161.52 49.05Z" fill="white"/>
<path d="M117.387 76V62.7H119.629L124.132 71.687L128.616 62.7H130.877V76H128.977V66.025L124.854 74.138H123.391L119.287 66.044V76H117.387ZM136.719 76.228C135.934 76.228 135.281 76.095 134.762 75.829C134.243 75.563 133.856 75.2083 133.603 74.765C133.35 74.309 133.223 73.8213 133.223 73.302C133.223 72.6687 133.388 72.1303 133.717 71.687C134.046 71.231 134.515 70.8827 135.123 70.642C135.731 70.4013 136.459 70.281 137.308 70.281H139.797C139.797 69.7237 139.715 69.2613 139.55 68.894C139.385 68.5267 139.138 68.2543 138.809 68.077C138.492 67.887 138.087 67.792 137.593 67.792C137.023 67.792 136.535 67.9313 136.13 68.21C135.725 68.476 135.471 68.875 135.37 69.407H133.47C133.546 68.7357 133.774 68.1657 134.154 67.697C134.547 67.2157 135.047 66.8483 135.655 66.595C136.263 66.329 136.909 66.196 137.593 66.196C138.492 66.196 139.246 66.3543 139.854 66.671C140.462 66.9877 140.918 67.4373 141.222 68.02C141.539 68.59 141.697 69.274 141.697 70.072V76H140.044L139.892 74.385C139.753 74.6383 139.588 74.879 139.398 75.107C139.208 75.335 138.98 75.5313 138.714 75.696C138.461 75.8607 138.163 75.9873 137.821 76.076C137.492 76.1773 137.124 76.228 136.719 76.228ZM137.08 74.689C137.485 74.689 137.853 74.6067 138.182 74.442C138.511 74.2773 138.79 74.0557 139.018 73.777C139.259 73.4857 139.436 73.1627 139.55 72.808C139.677 72.4407 139.746 72.067 139.759 71.687V71.63H137.498C136.953 71.63 136.51 71.6997 136.168 71.839C135.839 71.9657 135.598 72.143 135.446 72.371C135.294 72.599 135.218 72.865 135.218 73.169C135.218 73.4857 135.288 73.758 135.427 73.986C135.579 74.2013 135.794 74.3723 136.073 74.499C136.352 74.6257 136.687 74.689 137.08 74.689ZM144.255 76V66.424H146.155V76H144.255ZM145.224 64.619C144.857 64.619 144.553 64.505 144.312 64.277C144.084 64.049 143.97 63.7577 143.97 63.403C143.97 63.061 144.084 62.7823 144.312 62.567C144.553 62.339 144.857 62.225 145.224 62.225C145.579 62.225 145.876 62.339 146.117 62.567C146.358 62.7823 146.478 63.061 146.478 63.403C146.478 63.7577 146.358 64.049 146.117 64.277C145.876 64.505 145.579 64.619 145.224 64.619ZM152.824 76C152.216 76 151.69 75.905 151.247 75.715C150.804 75.525 150.462 75.2083 150.221 74.765C149.98 74.3217 149.86 73.72 149.86 72.96V68.039H148.207V66.424H149.86L150.088 64.03H151.76V66.424H154.477V68.039H151.76V72.979C151.76 73.5237 151.874 73.8973 152.102 74.1C152.33 74.29 152.723 74.385 153.28 74.385H154.382V76H152.824ZM160.277 76.228C159.467 76.228 158.757 76.095 158.149 75.829C157.541 75.563 157.06 75.1893 156.705 74.708C156.351 74.2267 156.135 73.663 156.059 73.017H157.997C158.061 73.321 158.181 73.5997 158.358 73.853C158.548 74.1063 158.802 74.309 159.118 74.461C159.448 74.613 159.834 74.689 160.277 74.689C160.695 74.689 161.037 74.632 161.303 74.518C161.582 74.3913 161.785 74.2267 161.911 74.024C162.038 73.8087 162.101 73.5807 162.101 73.34C162.101 72.9853 162.013 72.7193 161.835 72.542C161.671 72.352 161.417 72.2063 161.075 72.105C160.746 71.991 160.347 71.8897 159.878 71.801C159.435 71.725 159.004 71.6237 158.586 71.497C158.181 71.3577 157.814 71.1867 157.484 70.984C157.168 70.7813 156.914 70.528 156.724 70.224C156.534 69.9073 156.439 69.521 156.439 69.065C156.439 68.5203 156.585 68.0327 156.876 67.602C157.168 67.1587 157.579 66.8167 158.111 66.576C158.656 66.3227 159.296 66.196 160.03 66.196C161.094 66.196 161.949 66.4493 162.595 66.956C163.241 67.4627 163.621 68.1783 163.735 69.103H161.892C161.842 68.6723 161.652 68.343 161.322 68.115C160.993 67.8743 160.556 67.754 160.011 67.754C159.467 67.754 159.049 67.8617 158.757 68.077C158.466 68.2923 158.32 68.5773 158.32 68.932C158.32 69.16 158.403 69.3627 158.567 69.54C158.732 69.7173 158.973 69.8693 159.289 69.996C159.619 70.11 160.018 70.2177 160.486 70.319C161.158 70.4457 161.759 70.604 162.291 70.794C162.823 70.984 163.248 71.2627 163.564 71.63C163.881 71.9973 164.039 72.523 164.039 73.207C164.052 73.8023 163.9 74.328 163.583 74.784C163.279 75.24 162.842 75.5947 162.272 75.848C161.715 76.1013 161.05 76.228 160.277 76.228ZM170.646 76.228C169.747 76.228 168.936 76.019 168.214 75.601C167.505 75.183 166.941 74.6003 166.523 73.853C166.118 73.093 165.915 72.219 165.915 71.231C165.915 70.2177 166.124 69.3373 166.542 68.59C166.96 67.83 167.53 67.241 168.252 66.823C168.974 66.405 169.785 66.196 170.684 66.196C171.596 66.196 172.407 66.405 173.116 66.823C173.826 67.241 174.383 67.8237 174.788 68.571C175.206 69.3183 175.415 70.1987 175.415 71.212C175.415 72.2253 175.206 73.1057 174.788 73.853C174.383 74.6003 173.819 75.183 173.097 75.601C172.375 76.019 171.558 76.228 170.646 76.228ZM170.646 74.594C171.166 74.594 171.634 74.4673 172.052 74.214C172.483 73.9607 172.825 73.587 173.078 73.093C173.344 72.5863 173.477 71.9593 173.477 71.212C173.477 70.4647 173.351 69.844 173.097 69.35C172.844 68.8433 172.502 68.4633 172.071 68.21C171.653 67.9567 171.191 67.83 170.684 67.83C170.178 67.83 169.709 67.9567 169.278 68.21C168.848 68.4633 168.499 68.8433 168.233 69.35C167.98 69.844 167.853 70.4647 167.853 71.212C167.853 71.9593 167.98 72.5863 168.233 73.093C168.499 73.587 168.841 73.9607 169.259 74.214C169.69 74.4673 170.152 74.594 170.646 74.594Z" fill="#A2DE38"/>
<path d="M108.194 29.2131C106.54 30.7639 103.653 29.8815 101.816 27.7965C99.3761 25.0282 98.4929 19.7852 99.2793 15.1097L108.194 29.2131ZM110.118 27.4253C109.047 26.9713 104.744 24.7561 106.448 16.8924C103.718 15.1033 99.8017 13.7578 99.551 13.466C99.551 13.466 99.5613 13.939 99.4357 14.8665L108.698 28.6565C108.928 28.2043 109.538 27.8434 110.118 27.4253ZM107.192 22.7624C108.106 25.7614 109.722 26.1159 110.913 26.8575L123.007 1.05422H123.15L111.921 27.7145C113.06 28.7853 114.579 29.8618 116.859 29.3494C126.258 27.6752 128.404 12.5537 123.32 0C117.341 4.08949 112.867 6.2946 109.948 10.6239C107.677 13.9911 105.916 18.733 107.192 22.7624Z" fill="#648512"/>
</svg>
