<svg width="252" height="212" viewBox="0 0 252 212" fill="none" xmlns="http://www.w3.org/2000/svg">
<g clip-path="url(#clip0_3_4)">
<rect width="252" height="212" fill="white"/>
<path d="M95.8 81.4V121H85.36V99.7L85.81 92.23L84.1 100.9L78.55 117.46H68.35L62.83 100.9L61.15 92.23L61.57 99.7V121H51.16V81.4H65.98L72.85 106.03L73.48 109.6L74.08 106.03L80.95 81.4H95.8ZM102.701 121V96.37H113.291V121H102.701ZM108.131 92.59C106.511 92.59 105.131 92.02 103.991 90.88C102.871 89.74 102.311 88.38 102.311 86.8C102.311 85.22 102.871 83.85 103.991 82.69C105.131 81.53 106.511 80.95 108.131 80.95C109.191 80.95 110.161 81.22 111.041 81.76C111.921 82.28 112.631 82.98 113.171 83.86C113.711 84.74 113.981 85.72 113.981 86.8C113.981 88.38 113.401 89.74 112.241 90.88C111.101 92.02 109.731 92.59 108.131 92.59ZM136.446 96.37H148.296L137.076 108.13L149.616 121H137.466L128.706 111.49V121H118.086V79.72H128.706V104.47L136.446 96.37ZM163.411 121.72C160.651 121.72 158.201 121.17 156.061 120.07C153.921 118.97 152.241 117.45 151.021 115.51C149.801 113.55 149.191 111.3 149.191 108.76C149.191 106.22 149.801 103.97 151.021 102.01C152.241 100.03 153.921 98.48 156.061 97.36C158.201 96.22 160.651 95.65 163.411 95.65C166.151 95.65 168.571 96.22 170.671 97.36C172.791 98.48 174.441 100.03 175.621 102.01C176.821 103.97 177.421 106.22 177.421 108.76C177.421 111.3 176.821 113.55 175.621 115.51C174.441 117.45 172.791 118.97 170.671 120.07C168.571 121.17 166.151 121.72 163.411 121.72ZM163.411 113.05C164.231 113.05 164.941 112.88 165.541 112.54C166.141 112.18 166.601 111.67 166.921 111.01C167.241 110.35 167.401 109.58 167.401 108.7C167.401 107.84 167.241 107.08 166.921 106.42C166.601 105.76 166.141 105.25 165.541 104.89C164.941 104.51 164.231 104.32 163.411 104.32C162.571 104.32 161.851 104.51 161.251 104.89C160.651 105.25 160.181 105.76 159.841 106.42C159.501 107.08 159.331 107.84 159.331 108.7C159.331 109.58 159.501 110.35 159.841 111.01C160.181 111.67 160.651 112.18 161.251 112.54C161.851 112.88 162.571 113.05 163.411 113.05ZM192.298 121H181.648V79.72H192.298V121ZM210.52 121.72C207.76 121.72 205.31 121.17 203.17 120.07C201.03 118.97 199.35 117.45 198.13 115.51C196.91 113.55 196.3 111.3 196.3 108.76C196.3 106.22 196.91 103.97 198.13 102.01C199.35 100.03 201.03 98.48 203.17 97.36C205.31 96.22 207.76 95.65 210.52 95.65C213.26 95.65 215.68 96.22 217.78 97.36C219.9 98.48 221.55 100.03 222.73 102.01C223.93 103.97 224.53 106.22 224.53 108.76C224.53 111.3 223.93 113.55 222.73 115.51C221.55 117.45 219.9 118.97 217.78 120.07C215.68 121.17 213.26 121.72 210.52 121.72ZM210.52 113.05C211.34 113.05 212.05 112.88 212.65 112.54C213.25 112.18 213.71 111.67 214.03 111.01C214.35 110.35 214.51 109.58 214.51 108.7C214.51 107.84 214.35 107.08 214.03 106.42C213.71 105.76 213.25 105.25 212.65 104.89C212.05 104.51 211.34 104.32 210.52 104.32C209.68 104.32 208.96 104.51 208.36 104.89C207.76 105.25 207.29 105.76 206.95 106.42C206.61 107.08 206.44 107.84 206.44 108.7C206.44 109.58 206.61 110.35 206.95 111.01C207.29 111.67 207.76 112.18 208.36 112.54C208.96 112.88 209.68 113.05 210.52 113.05Z" fill="#393D37"/>
<path d="M164.387 140V126.7H166.629L171.132 135.687L175.616 126.7H177.877V140H175.977V130.025L171.854 138.138H170.391L166.287 130.044V140H164.387ZM183.719 140.228C182.934 140.228 182.281 140.095 181.762 139.829C181.243 139.563 180.856 139.208 180.603 138.765C180.35 138.309 180.223 137.821 180.223 137.302C180.223 136.669 180.388 136.13 180.717 135.687C181.046 135.231 181.515 134.883 182.123 134.642C182.731 134.401 183.459 134.281 184.308 134.281H186.797C186.797 133.724 186.715 133.261 186.55 132.894C186.385 132.527 186.138 132.254 185.809 132.077C185.492 131.887 185.087 131.792 184.593 131.792C184.023 131.792 183.535 131.931 183.13 132.21C182.725 132.476 182.471 132.875 182.37 133.407H180.47C180.546 132.736 180.774 132.166 181.154 131.697C181.547 131.216 182.047 130.848 182.655 130.595C183.263 130.329 183.909 130.196 184.593 130.196C185.492 130.196 186.246 130.354 186.854 130.671C187.462 130.988 187.918 131.437 188.222 132.02C188.539 132.59 188.697 133.274 188.697 134.072V140H187.044L186.892 138.385C186.753 138.638 186.588 138.879 186.398 139.107C186.208 139.335 185.98 139.531 185.714 139.696C185.461 139.861 185.163 139.987 184.821 140.076C184.492 140.177 184.124 140.228 183.719 140.228ZM184.08 138.689C184.485 138.689 184.853 138.607 185.182 138.442C185.511 138.277 185.79 138.056 186.018 137.777C186.259 137.486 186.436 137.163 186.55 136.808C186.677 136.441 186.746 136.067 186.759 135.687V135.63H184.498C183.953 135.63 183.51 135.7 183.168 135.839C182.839 135.966 182.598 136.143 182.446 136.371C182.294 136.599 182.218 136.865 182.218 137.169C182.218 137.486 182.288 137.758 182.427 137.986C182.579 138.201 182.794 138.372 183.073 138.499C183.352 138.626 183.687 138.689 184.08 138.689ZM191.255 140V130.424H193.155V140H191.255ZM192.224 128.619C191.857 128.619 191.553 128.505 191.312 128.277C191.084 128.049 190.97 127.758 190.97 127.403C190.97 127.061 191.084 126.782 191.312 126.567C191.553 126.339 191.857 126.225 192.224 126.225C192.579 126.225 192.876 126.339 193.117 126.567C193.358 126.782 193.478 127.061 193.478 127.403C193.478 127.758 193.358 128.049 193.117 128.277C192.876 128.505 192.579 128.619 192.224 128.619ZM199.824 140C199.216 140 198.69 139.905 198.247 139.715C197.804 139.525 197.462 139.208 197.221 138.765C196.98 138.322 196.86 137.72 196.86 136.96V132.039H195.207V130.424H196.86L197.088 128.03H198.76V130.424H201.477V132.039H198.76V136.979C198.76 137.524 198.874 137.897 199.102 138.1C199.33 138.29 199.723 138.385 200.28 138.385H201.382V140H199.824ZM207.277 140.228C206.467 140.228 205.757 140.095 205.149 139.829C204.541 139.563 204.06 139.189 203.705 138.708C203.351 138.227 203.135 137.663 203.059 137.017H204.997C205.061 137.321 205.181 137.6 205.358 137.853C205.548 138.106 205.802 138.309 206.118 138.461C206.448 138.613 206.834 138.689 207.277 138.689C207.695 138.689 208.037 138.632 208.303 138.518C208.582 138.391 208.785 138.227 208.911 138.024C209.038 137.809 209.101 137.581 209.101 137.34C209.101 136.985 209.013 136.719 208.835 136.542C208.671 136.352 208.417 136.206 208.075 136.105C207.746 135.991 207.347 135.89 206.878 135.801C206.435 135.725 206.004 135.624 205.586 135.497C205.181 135.358 204.814 135.187 204.484 134.984C204.168 134.781 203.914 134.528 203.724 134.224C203.534 133.907 203.439 133.521 203.439 133.065C203.439 132.52 203.585 132.033 203.876 131.602C204.168 131.159 204.579 130.817 205.111 130.576C205.656 130.323 206.296 130.196 207.03 130.196C208.094 130.196 208.949 130.449 209.595 130.956C210.241 131.463 210.621 132.178 210.735 133.103H208.892C208.842 132.672 208.652 132.343 208.322 132.115C207.993 131.874 207.556 131.754 207.011 131.754C206.467 131.754 206.049 131.862 205.757 132.077C205.466 132.292 205.32 132.577 205.32 132.932C205.32 133.16 205.403 133.363 205.567 133.54C205.732 133.717 205.973 133.869 206.289 133.996C206.619 134.11 207.018 134.218 207.486 134.319C208.158 134.446 208.759 134.604 209.291 134.794C209.823 134.984 210.248 135.263 210.564 135.63C210.881 135.997 211.039 136.523 211.039 137.207C211.052 137.802 210.9 138.328 210.583 138.784C210.279 139.24 209.842 139.595 209.272 139.848C208.715 140.101 208.05 140.228 207.277 140.228ZM217.646 140.228C216.747 140.228 215.936 140.019 215.214 139.601C214.505 139.183 213.941 138.6 213.523 137.853C213.118 137.093 212.915 136.219 212.915 135.231C212.915 134.218 213.124 133.337 213.542 132.59C213.96 131.83 214.53 131.241 215.252 130.823C215.974 130.405 216.785 130.196 217.684 130.196C218.596 130.196 219.407 130.405 220.116 130.823C220.826 131.241 221.383 131.824 221.788 132.571C222.206 133.318 222.415 134.199 222.415 135.212C222.415 136.225 222.206 137.106 221.788 137.853C221.383 138.6 220.819 139.183 220.097 139.601C219.375 140.019 218.558 140.228 217.646 140.228ZM217.646 138.594C218.166 138.594 218.634 138.467 219.052 138.214C219.483 137.961 219.825 137.587 220.078 137.093C220.344 136.586 220.477 135.959 220.477 135.212C220.477 134.465 220.351 133.844 220.097 133.35C219.844 132.843 219.502 132.463 219.071 132.21C218.653 131.957 218.191 131.83 217.684 131.83C217.178 131.83 216.709 131.957 216.278 132.21C215.848 132.463 215.499 132.843 215.233 133.35C214.98 133.844 214.853 134.465 214.853 135.212C214.853 135.959 214.98 136.586 215.233 137.093C215.499 137.587 215.841 137.961 216.259 138.214C216.69 138.467 217.152 138.594 217.646 138.594Z" fill="#7CB518"/>
<path d="M157.194 93.2131C155.54 94.7639 152.653 93.8815 150.816 91.7965C148.376 89.0282 147.493 83.7852 148.279 79.1097L157.194 93.2131ZM159.118 91.4253C158.047 90.9713 153.744 88.7561 155.448 80.8924C152.718 79.1033 148.802 77.7578 148.551 77.466C148.551 77.466 148.561 77.939 148.436 78.8665L157.698 92.6565C157.928 92.2043 158.538 91.8434 159.118 91.4253ZM156.192 86.7624C157.106 89.7614 158.722 90.1159 159.913 90.8575L172.007 65.0542H172.15L160.921 91.7145C162.06 92.7853 163.579 93.8618 165.859 93.3494C175.258 91.6752 177.404 76.5537 172.32 64C166.341 68.0895 161.867 70.2946 158.948 74.6239C156.677 77.9911 154.916 82.733 156.192 86.7624Z" fill="#5C8001"/>
</g>
<defs>
<clipPath id="clip0_3_4">
<rect width="252" height="212" fill="white"/>
</clipPath>
</defs>
</svg>
