<svg width="385" height="377" viewBox="0 0 385 377" fill="none" xmlns="http://www.w3.org/2000/svg">
<g clip-path="url(#clip0_131_7003)">
<path d="M390.565 231.085C377.255 266.713 350.075 305.279 311.826 316.7C253.996 333.959 247.129 380.539 143.613 376.22C128.492 375.663 113.476 373.464 98.831 369.66C91.6817 367.77 84.6589 365.431 77.8044 362.657C17.3269 338.16 -14.2175 284.252 -16.8289 227.85C-20.2806 153.656 31.4772 118.298 65.1179 97.5968C98.7587 76.8955 139.303 -3.29833 241.093 0.108211C256.637 0.574589 272.076 2.83037 287.104 6.83094C321.359 16.1018 356.174 36.6043 376.415 66.5765C377.933 68.8355 379.384 71.1366 380.77 73.4799C407.86 119.428 408.7 182.507 390.565 231.085Z" fill="#C6FF00"/>
<path opacity="0.8" d="M390.565 231.085C377.255 266.713 350.075 305.279 311.826 316.7C253.996 333.959 247.129 380.539 143.613 376.22C128.492 375.663 113.476 373.464 98.831 369.66C91.6817 367.77 84.6589 365.431 77.8044 362.657C17.3269 338.16 -14.2175 284.252 -16.8289 227.85C-20.2806 153.656 31.4772 118.298 65.1179 97.5968C98.7587 76.8955 139.303 -3.29833 241.093 0.108211C256.637 0.574589 272.076 2.83037 287.104 6.83094C321.359 16.1018 356.174 36.6043 376.415 66.5765C377.933 68.8355 379.384 71.1366 380.77 73.4799C407.86 119.428 408.7 182.507 390.565 231.085Z" fill="white"/>
<path d="M378.774 292.502C378.828 292.502 379.804 288.409 379.831 288.138C380.201 285.047 379.081 278.849 375.909 277.394C375.375 277.167 374.799 277.056 374.22 277.067C373.64 277.078 373.068 277.211 372.543 277.457C372.018 277.704 371.551 278.058 371.172 278.497C370.793 278.936 370.51 279.45 370.343 280.005C369.548 282.337 370.677 285.156 371.979 287.08C373.524 289.339 378.774 292.502 378.774 292.502Z" fill="#263238"/>
<path d="M316.787 292.457C319.317 293.496 325.435 293.234 325.444 293.225C325.453 293.216 324.043 289.249 323.917 289.005C322.516 286.222 318.17 281.668 314.718 282.21C314.148 282.315 313.607 282.539 313.129 282.867C312.652 283.196 312.249 283.621 311.947 284.116C311.646 284.61 311.451 285.163 311.378 285.738C311.304 286.312 311.352 286.896 311.519 287.451C312.143 289.836 314.637 291.571 316.787 292.457Z" fill="#263238"/>
<path d="M319.308 310.149C321.92 310.474 327.35 308.776 327.784 308.64C328.746 311.752 329.917 314.795 331.29 317.748C332.076 319.474 332.925 321.182 333.802 322.89C333.287 322.167 332.817 321.534 332.745 321.444C330.657 319.131 325.263 315.887 322.073 317.324C321.552 317.577 321.091 317.936 320.718 318.379C320.345 318.823 320.07 319.339 319.909 319.895C319.749 320.452 319.708 321.036 319.788 321.609C319.868 322.183 320.068 322.733 320.374 323.224C321.603 325.366 324.468 326.369 326.772 326.658C329.076 326.947 333.784 325.592 335.013 325.212C335.347 325.872 335.681 326.522 336.025 327.173C337.678 330.29 339.341 333.399 340.868 336.489C341.41 337.582 341.907 338.676 342.404 339.769C341.943 339.127 341.555 338.594 341.5 338.522C339.404 336.209 334.01 332.965 330.829 334.393C330.307 334.646 329.844 335.006 329.471 335.449C329.097 335.893 328.821 336.41 328.659 336.967C328.498 337.524 328.456 338.109 328.536 338.684C328.615 339.258 328.815 339.81 329.121 340.302C330.35 342.434 333.215 343.437 335.528 343.727C337.841 344.016 342.079 342.823 343.543 342.353C344.012 343.492 344.491 344.621 344.907 345.742C345.169 346.519 345.476 347.242 345.693 348.028C345.91 348.814 346.163 349.573 346.389 350.341C346.777 351.823 347.184 353.35 347.527 354.805C347.78 355.817 347.997 356.784 348.214 357.759C347.69 356.675 346.615 354.552 346.506 354.389C344.79 351.787 339.946 347.766 336.567 348.696C336.013 348.866 335.501 349.151 335.064 349.532C334.627 349.913 334.275 350.382 334.031 350.908C333.788 351.434 333.657 352.005 333.649 352.584C333.64 353.164 333.754 353.739 333.983 354.272C334.886 356.567 337.597 358.003 339.793 358.636C342.26 359.332 347.672 358.537 348.35 358.428C348.711 360.046 349.045 361.618 349.335 363.109C350.148 367.211 350.726 370.789 351.142 373.608H353.473C352.985 370.717 352.307 366.985 351.359 362.684C350.997 361.039 350.582 359.296 350.139 357.506C351.758 356.818 353.336 356.037 354.865 355.166C356.672 357.064 361.316 359.232 361.913 359.503C361.325 361.049 360.738 362.548 360.16 363.949C358.587 367.78 357.115 371.042 355.913 373.608H358.425C359.5 371.151 360.756 368.187 362.039 364.717C362.654 363.145 363.268 361.464 363.846 359.72C364.506 359.847 369.9 360.823 372.394 360.208C374.653 359.648 377.373 358.302 378.34 356.043C378.587 355.518 378.721 354.946 378.733 354.366C378.745 353.786 378.634 353.21 378.408 352.675C378.182 352.14 377.846 351.66 377.422 351.264C376.997 350.868 376.494 350.566 375.945 350.377C372.611 349.338 367.641 353.205 365.843 355.744C365.735 355.898 364.768 357.66 364.181 358.771C364.425 358.067 364.678 357.38 364.922 356.639C365.419 355.193 365.87 353.729 366.367 352.121C366.584 351.353 366.792 350.585 367.009 349.799C367.226 349.013 367.388 348.181 367.578 347.368C367.994 345.471 368.31 343.528 368.599 341.558C369.864 341.992 374.4 343.465 376.732 343.257C379.063 343.049 381.945 342.127 383.246 340.031C383.569 339.549 383.786 339.005 383.884 338.434C383.982 337.862 383.959 337.277 383.815 336.715C383.672 336.153 383.412 335.628 383.053 335.173C382.693 334.719 382.242 334.345 381.728 334.076C378.593 332.54 373.099 335.603 370.94 337.853C370.804 337.989 369.431 339.778 368.699 340.772C368.861 339.588 369.024 338.404 369.15 337.203C369.503 333.742 369.756 330.218 370.054 326.703C370.135 325.628 370.226 324.552 370.316 323.477C370.768 323.64 376.117 325.51 378.729 325.284C381.051 325.076 383.942 324.164 385.243 322.067C385.567 321.587 385.786 321.043 385.886 320.472C385.985 319.9 385.963 319.315 385.821 318.753C385.678 318.191 385.419 317.665 385.059 317.21C384.7 316.755 384.248 316.381 383.734 316.113C380.599 314.577 375.096 317.64 372.936 319.881C372.774 320.052 370.804 322.592 370.334 323.305C370.533 320.938 370.75 318.589 371.066 316.275C371.468 313.155 372.072 310.065 372.873 307.023C373.081 307.095 378.665 309.065 381.331 308.83C383.653 308.622 386.545 307.709 387.846 305.613C388.17 305.132 388.389 304.588 388.488 304.017C388.588 303.446 388.565 302.86 388.423 302.298C388.281 301.736 388.021 301.211 387.662 300.756C387.302 300.301 386.851 299.927 386.337 299.658C383.201 298.122 377.698 301.185 375.539 303.426C375.394 303.58 373.894 305.532 373.199 306.481L373.027 306.399C373.913 303.357 375.074 300.402 376.497 297.571C377.265 295.999 378.078 294.535 378.9 293.144C379.903 293.613 384.502 295.728 386.933 295.773C389.364 295.818 392.237 295.231 393.755 293.288C394.13 292.845 394.406 292.328 394.567 291.77C394.728 291.213 394.77 290.628 394.69 290.053C394.61 289.479 394.41 288.927 394.102 288.435C393.795 287.943 393.387 287.522 392.906 287.198C389.96 285.336 384.159 287.776 381.765 289.773C381.638 289.882 380.427 291.128 379.569 292.05C379.948 291.418 380.337 290.767 380.707 290.18C382.126 287.948 383.554 285.996 384.837 284.27C385.578 283.303 386.264 282.463 386.915 281.632C388.135 281.632 393.069 281.334 395.21 280.276C397.352 279.219 399.665 277.34 400.126 274.918C400.252 274.353 400.259 273.767 400.144 273.199C400.03 272.631 399.797 272.094 399.461 271.622C399.126 271.149 398.694 270.753 398.195 270.459C397.696 270.164 397.141 269.978 396.565 269.912C393.087 269.605 389.066 274.43 387.855 277.322C387.755 277.575 386.563 281.641 386.626 281.641H386.698C386.066 282.4 385.379 283.222 384.656 284.135C383.337 285.833 381.855 287.749 380.391 289.963C378.784 292.325 377.315 294.778 375.991 297.309C374.498 300.14 373.258 303.097 372.286 306.146V306.255C372.286 305.234 372.177 302.369 372.141 302.152C371.68 299.071 368.97 293.387 365.527 292.827C364.952 292.748 364.367 292.791 363.81 292.954C363.253 293.117 362.736 293.396 362.295 293.772C361.853 294.148 361.495 294.613 361.246 295.137C360.996 295.661 360.86 296.232 360.846 296.812C360.693 299.27 362.527 301.691 364.289 303.21C366.286 304.908 371.762 306.49 372.196 306.616C371.283 309.743 370.583 312.928 370.099 316.149C369.801 318.019 369.566 319.917 369.349 321.824C369.349 320.92 369.286 320.143 369.268 320.016C368.798 316.935 366.087 311.251 362.645 310.691C362.07 310.612 361.484 310.655 360.927 310.818C360.37 310.981 359.854 311.26 359.412 311.636C358.97 312.012 358.613 312.477 358.363 313.001C358.114 313.525 357.978 314.096 357.964 314.676C357.81 317.134 359.645 319.556 361.416 321.074C363.187 322.592 367.849 324.046 369.078 324.408C369.006 325.14 368.925 325.872 368.852 326.604C368.5 330.119 368.175 333.624 367.75 337.049C367.596 338.26 367.406 339.444 367.217 340.663C367.217 339.877 367.153 339.218 367.144 339.118C366.675 336.037 363.964 330.353 360.521 329.793C359.946 329.714 359.361 329.757 358.804 329.92C358.247 330.083 357.731 330.362 357.289 330.738C356.847 331.114 356.489 331.579 356.24 332.103C355.99 332.627 355.854 333.198 355.84 333.778C355.687 336.236 357.521 338.657 359.292 340.166C361.063 341.675 365.265 343.004 366.729 343.446C366.503 344.648 366.277 345.859 365.997 347.061C365.789 347.847 365.644 348.624 365.391 349.401C365.138 350.178 364.931 350.946 364.705 351.714C364.208 353.16 363.711 354.66 363.187 356.07C362.834 357.046 362.482 357.976 362.13 358.907C362.292 357.705 362.563 355.347 362.563 355.148C362.469 352.408 361.672 349.739 360.25 347.395C360.253 347.092 360.229 346.79 360.178 346.492C360.094 345.918 359.889 345.368 359.579 344.878C359.268 344.389 358.858 343.97 358.374 343.65C357.891 343.329 357.345 343.114 356.773 343.018C356.201 342.922 355.616 342.948 355.054 343.094C351.693 344.061 349.678 350.025 349.588 353.142C349.588 353.323 349.741 355.329 349.868 356.585C349.678 355.862 349.506 355.148 349.308 354.398C348.928 352.916 348.494 351.443 348.042 349.88C347.799 349.121 347.546 348.362 347.293 347.585C347.039 346.808 346.723 346.031 346.389 345.245C345.684 343.437 344.88 341.63 344.031 339.823C345.332 339.48 349.922 338.206 351.747 336.742C353.572 335.278 355.479 332.929 355.407 330.471C355.411 329.894 355.293 329.322 355.062 328.793C354.832 328.263 354.492 327.788 354.067 327.399C353.641 327.009 353.138 326.712 352.591 326.529C352.043 326.345 351.464 326.278 350.889 326.332C347.419 326.784 344.564 332.368 343.958 335.441C343.958 335.63 343.768 337.871 343.705 339.109C343.19 338.034 342.675 336.959 342.115 335.883C340.497 332.793 338.763 329.721 337.055 326.64C336.522 325.736 336.016 324.751 335.501 323.811C335.961 323.694 341.455 322.293 343.497 320.658C345.305 319.203 347.229 316.845 347.112 314.378C347.114 313.801 346.996 313.231 346.765 312.702C346.533 312.174 346.194 311.701 345.768 311.312C345.343 310.923 344.84 310.627 344.294 310.444C343.747 310.261 343.168 310.194 342.594 310.249C339.133 310.691 336.269 316.285 335.672 319.348C335.672 319.583 335.41 322.808 335.392 323.64C334.254 321.552 333.142 319.474 332.13 317.369C330.738 314.544 329.531 311.631 328.516 308.649C328.733 308.595 334.48 307.158 336.567 305.487C338.374 304.032 340.299 301.673 340.226 299.207C340.23 298.629 340.113 298.058 339.882 297.528C339.651 296.999 339.312 296.524 338.886 296.134C338.461 295.744 337.958 295.448 337.41 295.264C336.863 295.081 336.283 295.014 335.708 295.068C332.239 295.52 329.383 301.113 328.787 304.176C328.742 304.375 328.57 306.842 328.516 308.017H328.317C327.39 304.987 326.731 301.882 326.347 298.737C326.121 297.011 325.995 295.339 325.913 293.722C327.007 293.559 332.013 292.818 334.046 291.49C336.079 290.162 338.166 288.101 338.365 285.653C338.432 285.077 338.378 284.493 338.204 283.94C338.031 283.387 337.743 282.876 337.36 282.442C336.976 282.007 336.505 281.658 335.978 281.417C335.451 281.176 334.879 281.049 334.299 281.044C330.811 281.108 327.323 286.348 326.42 289.33C326.374 289.493 326.058 291.201 325.85 292.439C325.85 291.707 325.778 290.957 325.769 290.252C325.715 287.614 325.832 285.192 325.95 283.023C326.031 281.803 326.121 280.701 326.221 279.68C327.224 278.957 331.2 276.066 332.392 273.969C333.585 271.873 334.498 269.063 333.54 266.795C333.336 266.252 333.02 265.758 332.612 265.345C332.204 264.933 331.714 264.611 331.173 264.402C330.632 264.192 330.053 264.098 329.474 264.128C328.894 264.157 328.328 264.308 327.811 264.572C324.739 266.244 324.061 272.496 324.639 275.56C324.685 275.831 325.941 279.879 325.995 279.843H326.058C325.941 280.828 325.823 281.894 325.724 283.05C325.561 285.192 325.389 287.614 325.38 290.279C325.342 293.134 325.472 295.988 325.769 298.827C326.093 302.013 326.698 305.163 327.576 308.243V308.351C327.016 307.502 325.344 305.17 325.2 305.008C323.112 302.694 317.718 299.451 314.528 300.878C314.006 301.131 313.544 301.491 313.17 301.935C312.796 302.378 312.52 302.896 312.359 303.453C312.198 304.01 312.156 304.595 312.235 305.169C312.315 305.744 312.514 306.295 312.82 306.788C314.104 308.857 316.968 309.869 319.308 310.149Z" fill="#263238"/>
<path opacity="0.3" d="M316.787 292.457C319.317 293.496 325.435 293.234 325.444 293.225C325.453 293.216 324.043 289.249 323.917 289.005C322.516 286.222 318.17 281.668 314.718 282.21C314.148 282.315 313.607 282.539 313.129 282.867C312.652 283.196 312.249 283.621 311.947 284.116C311.646 284.61 311.451 285.163 311.378 285.738C311.304 286.312 311.352 286.896 311.519 287.451C312.143 289.836 314.637 291.571 316.787 292.457Z" fill="#263238"/>
<path opacity="0.3" d="M378.774 292.502C378.828 292.502 379.804 288.409 379.831 288.138C380.201 285.047 379.081 278.849 375.909 277.394C375.375 277.167 374.799 277.056 374.22 277.067C373.64 277.078 373.068 277.211 372.543 277.457C372.018 277.704 371.551 278.058 371.172 278.497C370.793 278.936 370.51 279.45 370.343 280.005C369.548 282.337 370.677 285.156 371.979 287.08C373.524 289.339 378.774 292.502 378.774 292.502Z" fill="#263238"/>
<path opacity="0.3" d="M319.308 310.149C321.92 310.474 327.35 308.776 327.784 308.64C328.746 311.752 329.917 314.795 331.29 317.748C332.076 319.474 332.925 321.182 333.802 322.89C333.287 322.167 332.817 321.534 332.745 321.444C330.657 319.131 325.263 315.887 322.073 317.324C321.552 317.577 321.091 317.936 320.718 318.379C320.345 318.823 320.07 319.339 319.909 319.895C319.749 320.452 319.708 321.036 319.788 321.609C319.868 322.183 320.068 322.733 320.374 323.224C321.603 325.366 324.468 326.369 326.772 326.658C329.076 326.947 333.784 325.592 335.013 325.212C335.347 325.872 335.681 326.522 336.025 327.173C337.678 330.29 339.341 333.399 340.868 336.489C341.41 337.582 341.907 338.676 342.404 339.769C341.943 339.127 341.555 338.594 341.5 338.522C339.404 336.209 334.01 332.965 330.829 334.393C330.307 334.646 329.844 335.006 329.471 335.449C329.097 335.893 328.821 336.41 328.659 336.967C328.498 337.524 328.456 338.109 328.536 338.684C328.615 339.258 328.815 339.81 329.121 340.302C330.35 342.434 333.215 343.437 335.528 343.727C337.841 344.016 342.079 342.823 343.543 342.353C344.012 343.492 344.491 344.621 344.907 345.742C345.169 346.519 345.476 347.242 345.693 348.028C345.91 348.814 346.163 349.573 346.389 350.341C346.777 351.823 347.184 353.35 347.527 354.805C347.78 355.817 347.997 356.784 348.214 357.759C347.69 356.675 346.615 354.552 346.506 354.389C344.79 351.787 339.946 347.766 336.567 348.696C336.013 348.866 335.501 349.151 335.064 349.532C334.627 349.913 334.275 350.382 334.031 350.908C333.788 351.434 333.657 352.005 333.649 352.584C333.64 353.164 333.754 353.739 333.983 354.272C334.886 356.567 337.597 358.003 339.793 358.636C342.26 359.332 347.672 358.537 348.35 358.428C348.711 360.046 349.045 361.618 349.335 363.109C350.148 367.211 350.726 370.789 351.142 373.608H353.473C352.985 370.717 352.307 366.985 351.359 362.684C350.997 361.039 350.582 359.296 350.139 357.506C351.758 356.818 353.336 356.037 354.865 355.166C356.672 357.064 361.316 359.232 361.913 359.503C361.325 361.049 360.738 362.548 360.16 363.949C358.587 367.78 357.115 371.042 355.913 373.608H358.425C359.5 371.151 360.756 368.187 362.039 364.717C362.654 363.145 363.268 361.464 363.846 359.72C364.506 359.847 369.9 360.823 372.394 360.208C374.653 359.648 377.373 358.302 378.34 356.043C378.587 355.518 378.721 354.946 378.733 354.366C378.745 353.786 378.634 353.21 378.408 352.675C378.182 352.14 377.846 351.66 377.422 351.264C376.997 350.868 376.494 350.566 375.945 350.377C372.611 349.338 367.641 353.205 365.843 355.744C365.735 355.898 364.768 357.66 364.181 358.771C364.425 358.067 364.678 357.38 364.922 356.639C365.419 355.193 365.87 353.729 366.367 352.121C366.584 351.353 366.792 350.585 367.009 349.799C367.226 349.013 367.388 348.181 367.578 347.368C367.994 345.471 368.31 343.528 368.599 341.558C369.864 341.992 374.4 343.465 376.732 343.257C379.063 343.049 381.945 342.127 383.246 340.031C383.569 339.549 383.786 339.005 383.884 338.434C383.982 337.862 383.959 337.277 383.815 336.715C383.672 336.153 383.412 335.628 383.053 335.173C382.693 334.719 382.242 334.345 381.728 334.076C378.593 332.54 373.099 335.603 370.94 337.853C370.804 337.989 369.431 339.778 368.699 340.772C368.861 339.588 369.024 338.404 369.15 337.203C369.503 333.742 369.756 330.218 370.054 326.703C370.135 325.628 370.226 324.552 370.316 323.477C370.768 323.64 376.117 325.51 378.729 325.284C381.051 325.076 383.942 324.164 385.243 322.067C385.567 321.587 385.786 321.043 385.886 320.472C385.985 319.9 385.963 319.315 385.821 318.753C385.678 318.191 385.419 317.665 385.059 317.21C384.7 316.755 384.248 316.381 383.734 316.113C380.599 314.577 375.096 317.64 372.936 319.881C372.774 320.052 370.804 322.592 370.334 323.305C370.533 320.938 370.75 318.589 371.066 316.275C371.468 313.155 372.072 310.065 372.873 307.023C373.081 307.095 378.665 309.065 381.331 308.83C383.653 308.622 386.545 307.709 387.846 305.613C388.17 305.132 388.389 304.588 388.488 304.017C388.588 303.446 388.565 302.86 388.423 302.298C388.281 301.736 388.021 301.211 387.662 300.756C387.302 300.301 386.851 299.927 386.337 299.658C383.201 298.122 377.698 301.185 375.539 303.426C375.394 303.58 373.894 305.532 373.199 306.481L373.027 306.399C373.913 303.357 375.074 300.402 376.497 297.571C377.265 295.999 378.078 294.535 378.9 293.144C379.903 293.613 384.502 295.728 386.933 295.773C389.364 295.818 392.237 295.231 393.755 293.288C394.13 292.845 394.406 292.328 394.567 291.77C394.728 291.213 394.77 290.628 394.69 290.053C394.61 289.479 394.41 288.927 394.102 288.435C393.795 287.943 393.387 287.522 392.906 287.198C389.96 285.336 384.159 287.776 381.765 289.773C381.638 289.882 380.427 291.128 379.569 292.05C379.948 291.418 380.337 290.767 380.707 290.18C382.126 287.948 383.554 285.996 384.837 284.27C385.578 283.303 386.264 282.463 386.915 281.632C388.135 281.632 393.069 281.334 395.21 280.276C397.352 279.219 399.665 277.34 400.126 274.918C400.252 274.353 400.259 273.767 400.144 273.199C400.03 272.631 399.797 272.094 399.461 271.622C399.126 271.149 398.694 270.753 398.195 270.459C397.696 270.164 397.141 269.978 396.565 269.912C393.087 269.605 389.066 274.43 387.855 277.322C387.755 277.575 386.563 281.641 386.626 281.641H386.698C386.066 282.4 385.379 283.222 384.656 284.135C383.337 285.833 381.855 287.749 380.391 289.963C378.784 292.325 377.315 294.778 375.991 297.309C374.498 300.14 373.258 303.097 372.286 306.146V306.255C372.286 305.234 372.177 302.369 372.141 302.152C371.68 299.071 368.97 293.387 365.527 292.827C364.952 292.748 364.367 292.791 363.81 292.954C363.253 293.117 362.736 293.396 362.295 293.772C361.853 294.148 361.495 294.613 361.246 295.137C360.996 295.661 360.86 296.232 360.846 296.812C360.693 299.27 362.527 301.691 364.289 303.21C366.286 304.908 371.762 306.49 372.196 306.616C371.283 309.743 370.583 312.928 370.099 316.149C369.801 318.019 369.566 319.917 369.349 321.824C369.349 320.92 369.286 320.143 369.268 320.016C368.798 316.935 366.087 311.251 362.645 310.691C362.07 310.612 361.484 310.655 360.927 310.818C360.37 310.981 359.854 311.26 359.412 311.636C358.97 312.012 358.613 312.477 358.363 313.001C358.114 313.525 357.978 314.096 357.964 314.676C357.81 317.134 359.645 319.556 361.416 321.074C363.187 322.592 367.849 324.046 369.078 324.408C369.006 325.14 368.925 325.872 368.852 326.604C368.5 330.119 368.175 333.624 367.75 337.049C367.596 338.26 367.406 339.444 367.217 340.663C367.217 339.877 367.153 339.218 367.144 339.118C366.675 336.037 363.964 330.353 360.521 329.793C359.946 329.714 359.361 329.757 358.804 329.92C358.247 330.083 357.731 330.362 357.289 330.738C356.847 331.114 356.489 331.579 356.24 332.103C355.99 332.627 355.854 333.198 355.84 333.778C355.687 336.236 357.521 338.657 359.292 340.166C361.063 341.675 365.265 343.004 366.729 343.446C366.503 344.648 366.277 345.859 365.997 347.061C365.789 347.847 365.644 348.624 365.391 349.401C365.138 350.178 364.931 350.946 364.705 351.714C364.208 353.16 363.711 354.66 363.187 356.07C362.834 357.046 362.482 357.976 362.13 358.907C362.292 357.705 362.563 355.347 362.563 355.148C362.469 352.408 361.672 349.739 360.25 347.395C360.253 347.092 360.229 346.79 360.178 346.492C360.094 345.918 359.889 345.368 359.579 344.878C359.268 344.389 358.858 343.97 358.374 343.65C357.891 343.329 357.345 343.114 356.773 343.018C356.201 342.922 355.616 342.948 355.054 343.094C351.693 344.061 349.678 350.025 349.588 353.142C349.588 353.323 349.741 355.329 349.868 356.585C349.678 355.862 349.506 355.148 349.308 354.398C348.928 352.916 348.494 351.443 348.042 349.88C347.799 349.121 347.546 348.362 347.293 347.585C347.039 346.808 346.723 346.031 346.389 345.245C345.684 343.437 344.88 341.63 344.031 339.823C345.332 339.48 349.922 338.206 351.747 336.742C353.572 335.278 355.479 332.929 355.407 330.471C355.411 329.894 355.293 329.322 355.062 328.793C354.832 328.263 354.492 327.788 354.067 327.399C353.641 327.009 353.138 326.712 352.591 326.529C352.043 326.345 351.464 326.278 350.889 326.332C347.419 326.784 344.564 332.368 343.958 335.441C343.958 335.63 343.768 337.871 343.705 339.109C343.19 338.034 342.675 336.959 342.115 335.883C340.497 332.793 338.763 329.721 337.055 326.64C336.522 325.736 336.016 324.751 335.501 323.811C335.961 323.694 341.455 322.293 343.497 320.658C345.305 319.203 347.229 316.845 347.112 314.378C347.114 313.801 346.996 313.231 346.765 312.702C346.533 312.174 346.194 311.701 345.768 311.312C345.343 310.923 344.84 310.627 344.294 310.444C343.747 310.261 343.168 310.194 342.594 310.249C339.133 310.691 336.269 316.285 335.672 319.348C335.672 319.583 335.41 322.808 335.392 323.64C334.254 321.552 333.142 319.474 332.13 317.369C330.738 314.544 329.531 311.631 328.516 308.649C328.733 308.595 334.48 307.158 336.567 305.487C338.374 304.032 340.299 301.673 340.226 299.207C340.23 298.629 340.113 298.058 339.882 297.528C339.651 296.999 339.312 296.524 338.886 296.134C338.461 295.744 337.958 295.448 337.41 295.264C336.863 295.081 336.283 295.014 335.708 295.068C332.239 295.52 329.383 301.113 328.787 304.176C328.742 304.375 328.57 306.842 328.516 308.017H328.317C327.39 304.987 326.731 301.882 326.347 298.737C326.121 297.011 325.995 295.339 325.913 293.722C327.007 293.559 332.013 292.818 334.046 291.49C336.079 290.162 338.166 288.101 338.365 285.653C338.432 285.077 338.378 284.493 338.204 283.94C338.031 283.387 337.743 282.876 337.36 282.442C336.976 282.007 336.505 281.658 335.978 281.417C335.451 281.176 334.879 281.049 334.299 281.044C330.811 281.108 327.323 286.348 326.42 289.33C326.374 289.493 326.058 291.201 325.85 292.439C325.85 291.707 325.778 290.957 325.769 290.252C325.715 287.614 325.832 285.192 325.95 283.023C326.031 281.803 326.121 280.701 326.221 279.68C327.224 278.957 331.2 276.066 332.392 273.969C333.585 271.873 334.498 269.063 333.54 266.795C333.336 266.252 333.02 265.758 332.612 265.345C332.204 264.933 331.714 264.611 331.173 264.402C330.632 264.192 330.053 264.098 329.474 264.128C328.894 264.157 328.328 264.308 327.811 264.572C324.739 266.244 324.061 272.496 324.639 275.56C324.685 275.831 325.941 279.879 325.995 279.843H326.058C325.941 280.828 325.823 281.894 325.724 283.05C325.561 285.192 325.389 287.614 325.38 290.279C325.342 293.134 325.472 295.988 325.769 298.827C326.093 302.013 326.698 305.163 327.576 308.243V308.351C327.016 307.502 325.344 305.17 325.2 305.008C323.112 302.694 317.718 299.451 314.528 300.878C314.006 301.131 313.544 301.491 313.17 301.935C312.796 302.378 312.52 302.896 312.359 303.453C312.198 304.01 312.156 304.595 312.235 305.169C312.315 305.744 312.514 306.295 312.82 306.788C314.104 308.857 316.968 309.869 319.308 310.149Z" fill="#263238"/>
<path d="M216.371 20.9182H14.8065V366.018H216.371V20.9182Z" stroke="#263238" stroke-width="0.852254" stroke-linecap="round" stroke-linejoin="round"/>
<path d="M210.389 28.3728H20.7792V358.564H210.389V28.3728Z" stroke="#263238" stroke-width="0.852254" stroke-linecap="round" stroke-linejoin="round"/>
<path d="M207.073 131.066H20.7792V138.611H207.073V131.066Z" stroke="#263238" stroke-width="0.852254" stroke-linecap="round" stroke-linejoin="round"/>
<path d="M117.708 255.156V358.473H110.154V255.156" stroke="#263238" stroke-width="0.852254" stroke-linecap="round" stroke-linejoin="round"/>
<path d="M110.154 247.602V138.62" stroke="#263238" stroke-width="0.852254" stroke-linecap="round" stroke-linejoin="round"/>
<path d="M117.708 247.602V138.62" stroke="#263238" stroke-width="0.852254" stroke-linecap="round" stroke-linejoin="round"/>
<path d="M110.154 131.066V28.3186H117.708V131.066" stroke="#263238" stroke-width="0.852254" stroke-linecap="round" stroke-linejoin="round"/>
<path d="M207.073 247.602H20.7792V255.147H207.073V247.602Z" stroke="#263238" stroke-width="0.852254" stroke-linecap="round" stroke-linejoin="round"/>
<path d="M201.931 247.602V138.62" stroke="#263238" stroke-width="0.852254" stroke-linecap="round" stroke-linejoin="round"/>
<path d="M201.931 131.066V28.3728H20.7792V131.066V138.62V247.602V255.156V358.564H201.931V255.156" stroke="#263238" stroke-width="0.852254" stroke-linecap="round" stroke-linejoin="round"/>
<path d="M196.474 44.258L137.993 102.729" stroke="#263238" stroke-width="0.852254" stroke-linecap="round" stroke-linejoin="round"/>
<path d="M176.676 79.0372L161.08 94.6333" stroke="#263238" stroke-width="0.852254" stroke-linecap="round" stroke-linejoin="round"/>
<path d="M156.887 100.037L150.291 106.633" stroke="#263238" stroke-width="0.852254" stroke-linecap="round" stroke-linejoin="round"/>
<path d="M68.1184 185.797L40.5317 213.392" stroke="#263238" stroke-width="0.852254" stroke-linecap="round" stroke-linejoin="round"/>
<path d="M102.301 169.008L69.6184 201.691" stroke="#263238" stroke-width="0.852254" stroke-linecap="round" stroke-linejoin="round"/>
<path d="M94.5033 40.0562L60.3204 74.2392" stroke="#263238" stroke-width="0.852254" stroke-linecap="round" stroke-linejoin="round"/>
<path d="M67.5221 98.2296L59.7241 106.028" stroke="#263238" stroke-width="0.852254" stroke-linecap="round" stroke-linejoin="round"/>
<path d="M187.474 213.392L179.08 221.787" stroke="#263238" stroke-width="0.852254" stroke-linecap="round" stroke-linejoin="round"/>
<path d="M189.868 179.806L140.686 228.988" stroke="#263238" stroke-width="0.852254" stroke-linecap="round" stroke-linejoin="round"/>
<path d="M150.888 336.941L175.781 312.056" stroke="#263238" stroke-width="0.852254" stroke-linecap="round" stroke-linejoin="round"/>
<path d="M45.3298 308.152L33.3301 320.152" stroke="#263238" stroke-width="0.852254" stroke-linecap="round" stroke-linejoin="round"/>
<path d="M392.59 23.2585H269.638V179.2H392.59V23.2585Z" stroke="#263238" stroke-width="0.852254" stroke-linecap="round" stroke-linejoin="round"/>
<path d="M387.927 29.177H274.3V173.291H387.927V29.177Z" stroke="#263238" stroke-width="0.852254" stroke-linecap="round" stroke-linejoin="round"/>
<path d="M361.289 62.9714H300.947V139.497H361.289V62.9714Z" stroke="#263238" stroke-width="0.852254" stroke-linecap="round" stroke-linejoin="round"/>
<path d="M70.0792 336.534C70.9725 333.436 71.622 330.273 72.0219 327.073C72.2352 325.48 72.3498 323.874 72.3653 322.266C72.4061 320.689 72.3093 319.11 72.0761 317.55L71.8683 316.402L71.6063 315.182L71.046 312.742C70.6846 311.107 70.3141 309.471 69.9798 307.809C69.6455 306.146 69.3563 304.466 69.1846 302.749C69.0138 301.038 68.9565 299.317 69.013 297.598C69.013 297.359 69.1082 297.129 69.2776 296.959C69.4471 296.79 69.6769 296.695 69.9166 296.695C70.1562 296.695 70.386 296.79 70.5555 296.959C70.7249 297.129 70.8201 297.359 70.8201 297.598C70.9362 300.862 71.449 304.1 72.3472 307.24C72.7719 308.83 73.2508 310.429 73.7116 312.029L74.4164 314.432L74.7688 315.643L75.0941 316.953C75.4648 318.675 75.6855 320.425 75.7538 322.185C75.8577 323.918 75.8577 325.656 75.7538 327.39C75.5479 330.848 75.0645 334.283 74.308 337.664C74.1668 338.206 73.8219 338.673 73.3452 338.967C72.8685 339.262 72.2965 339.361 71.7484 339.245C71.2003 339.128 70.7181 338.805 70.4021 338.342C70.0862 337.88 69.9608 337.313 70.0521 336.76C70.048 336.715 70.048 336.67 70.0521 336.624L70.0792 336.534Z" fill="#C6FF00" stroke="#263238" stroke-width="0.852254" stroke-linecap="round" stroke-linejoin="round"/>
<path d="M71.6154 302.414C71.6154 302.414 71.6154 297.336 74.4346 294.517C77.2538 291.698 80.8862 291.047 83.2807 290.776C85.8198 290.496 97.5665 292.538 97.5665 292.538C95.339 295.788 92.5914 298.648 89.4342 301.005C84.3108 304.673 71.6154 302.414 71.6154 302.414Z" fill="#C6FF00" stroke="#263238" stroke-width="0.852254" stroke-linecap="round" stroke-linejoin="round"/>
<path d="M87.2294 295.231C88.5218 294.922 89.8313 294.69 91.151 294.535" stroke="#263238" stroke-width="0.852254" stroke-linecap="round" stroke-linejoin="round"/>
<path d="M71.6154 302.414C75.6962 299.532 80.2064 297.312 84.9795 295.836" stroke="#263238" stroke-width="0.852254" stroke-linecap="round" stroke-linejoin="round"/>
<path d="M69.013 297.598C69.013 297.598 65.9317 290.225 60.7451 288.083C55.5585 285.942 48.5918 291.12 48.5918 291.12C48.5918 291.12 51.6279 297.734 57.8898 298.628C61.6268 299.168 65.4386 298.815 69.013 297.598Z" fill="#C6FF00" stroke="#263238" stroke-width="0.852254" stroke-linecap="round" stroke-linejoin="round"/>
<path d="M69.013 297.598C69.013 297.598 62.3535 293.442 56.8145 292.547L69.013 297.598Z" fill="#C6FF00"/>
<path d="M69.013 297.598C69.013 297.598 62.3535 293.442 56.8145 292.547" stroke="#263238" stroke-width="0.852254" stroke-linecap="round" stroke-linejoin="round"/>
<path d="M101.931 331.628H44.7606L51.3568 373.202H95.3346L101.931 331.628Z" fill="#263238" stroke="#263238" stroke-width="0.852254" stroke-linecap="round" stroke-linejoin="round"/>
<path d="M228.949 290.135C228.949 290.135 205.645 286.638 194.811 284.379C186.525 282.653 174.562 279.563 174.562 279.563C174.562 279.563 147.761 268.286 145.231 268.719C142.701 269.153 135.174 276.364 135.174 276.364C135.174 276.364 149.885 295.872 150.535 295.746C151.186 295.619 169.899 291.228 169.899 291.228C169.899 291.228 212.034 315.977 219.796 318.435C227.557 320.893 231.75 321.833 231.75 321.833L228.949 290.135Z" fill="white" stroke="#263238" stroke-width="0.852254" stroke-linecap="round" stroke-linejoin="round"/>
<path d="M124.982 272.189C124.982 272.189 140.541 291.074 142.556 295.945C144.571 300.815 148.981 323.73 151.457 328.519C152.848 331.23 157.42 337.51 161.143 342.48C161.82 343.384 162.671 344.142 163.647 344.711C164.623 345.28 165.702 345.646 166.822 345.79C167.943 345.933 169.08 345.85 170.167 345.545C171.255 345.24 172.27 344.72 173.152 344.016L191.549 329.314C192.442 328.6 193.18 327.712 193.719 326.703C194.258 325.695 194.586 324.588 194.684 323.449C194.782 322.31 194.648 321.163 194.289 320.077C193.93 318.992 193.355 317.99 192.597 317.134L184.158 307.041C183.245 305.952 182.201 304.981 181.049 304.149C174.417 299.369 150.761 282.228 146.46 277.276C141.445 271.502 136.584 265.232 136.584 265.232L124.982 272.189Z" fill="white" stroke="#263238" stroke-width="0.852254" stroke-linecap="round" stroke-linejoin="round"/>
<path d="M127.295 274.638L137.93 267.599C137.707 267.029 137.645 266.409 137.752 265.806C137.859 265.203 138.13 264.642 138.535 264.183C139.945 262.756 142.15 259.06 140.532 256.503C138.915 253.946 127.204 253.34 122.569 256.738C117.933 260.135 110.388 268.539 110.388 268.539L115.521 274.999L121.566 271.593C121.566 271.593 125.108 274.304 127.295 274.638Z" fill="#999999" stroke="#263238" stroke-width="0.852254" stroke-linecap="round" stroke-linejoin="round"/>
<path d="M110.976 269.325L108.003 272.018L111.455 276.328L114.644 273.698L110.976 269.325Z" fill="white" stroke="#263238" stroke-width="0.852254" stroke-linecap="round" stroke-linejoin="round"/>
<path d="M106.476 274.322L96.1931 277.322" stroke="#263238" stroke-width="0.852254" stroke-linecap="round" stroke-linejoin="round"/>
<path d="M103.015 285.942L101.335 288.463" stroke="#263238" stroke-width="0.852254" stroke-linecap="round" stroke-linejoin="round"/>
<path d="M108.617 277.538L104.596 283.565" stroke="#263238" stroke-width="0.852254" stroke-linecap="round" stroke-linejoin="round"/>
<path d="M127.9 275.695C127.9 275.695 124.195 277.177 124.647 279.779C125.099 282.382 127.864 283.746 127.864 283.746C127.864 283.746 136.674 283.222 136.9 282.056C137.126 280.891 135.4 279.066 133.755 278.505C132.304 278.06 130.829 277.698 129.337 277.421L127.9 275.695Z" fill="white" stroke="#263238" stroke-width="0.852254" stroke-linecap="round" stroke-linejoin="round"/>
<path d="M127.864 283.746C127.75 284.483 127.792 285.235 127.988 285.955C128.184 286.674 128.53 287.344 129.003 287.921C130.638 290.044 131.171 290.632 133.846 289.782C136.52 288.933 141.029 286.43 140.975 284.46C140.921 282.49 136.891 282.056 136.891 282.056C136.891 282.056 130.015 283.936 127.864 283.746Z" fill="white" stroke="#263238" stroke-width="0.852254" stroke-linecap="round" stroke-linejoin="round"/>
<path d="M131.695 290.433C131.695 290.433 131.912 293.351 133.837 293.875C135.761 294.4 138.499 293.071 139.782 292.294C141.065 291.517 144.355 288.544 143.686 286.258C143.017 283.972 140.279 286.132 140.279 286.132C140.279 286.132 135.535 289.773 131.695 290.433Z" fill="white" stroke="#263238" stroke-width="0.852254" stroke-linecap="round" stroke-linejoin="round"/>
<path d="M136.123 294.047C136.123 294.047 136.385 296.396 137.74 296.875C139.096 297.354 142.674 295.186 143.903 293.261C145.132 291.336 142.999 289.882 142.999 289.882C142.999 289.882 137.406 294.11 136.123 294.047Z" fill="white" stroke="#263238" stroke-width="0.852254" stroke-linecap="round" stroke-linejoin="round"/>
<path d="M172.574 280.376C172.574 280.376 151.24 266.271 148.529 264.599C145.818 262.927 142.665 264.897 141.671 266.009C139.053 268.294 136.096 270.16 132.906 271.539C130.195 272.442 127.584 273.635 129.472 274.972C131.361 276.31 134.27 276.779 137.496 276.201C140.334 275.559 143.114 274.685 145.809 273.59C145.809 273.59 149.279 284.126 156.797 283.782" fill="white"/>
<path d="M172.574 280.376C172.574 280.376 151.24 266.271 148.529 264.599C145.818 262.927 142.665 264.897 141.671 266.009C139.053 268.294 136.096 270.16 132.906 271.539C130.195 272.442 127.584 273.635 129.472 274.972C131.361 276.31 134.27 276.779 137.496 276.201C140.334 275.559 143.114 274.685 145.809 273.59C145.809 273.59 149.279 284.126 156.797 283.782" stroke="#263238" stroke-width="0.852254" stroke-linecap="round" stroke-linejoin="round"/>
<path d="M215.124 115.804C215.124 115.804 212.178 126.648 213.651 129.358C215.124 132.069 217.094 135.015 216.85 137.961C216.606 140.906 211.934 149.517 213.407 150.99C214.88 152.463 220.292 153.936 220.292 153.936C220.292 153.936 229.383 171.881 231.596 171.881C233.81 171.881 240.443 168.195 241.671 167.951C242.9 167.707 244.617 167.698 246.587 171.628C248.557 175.559 251.006 179.761 251.006 180.728C251.006 181.694 242.873 189.086 242.873 189.086C242.873 189.086 223.943 199.929 222.47 204.076C220.997 208.224 215.097 238.476 213.624 243.392C212.151 248.307 206.251 250.033 208.464 253.223C209.765 255.044 210.608 257.152 210.922 259.367C210.922 259.367 204.534 264.789 206.495 267.969C208.455 271.15 212.151 276.328 212.151 276.328C212.151 276.328 209.205 275.343 208.708 278.785C208.211 282.228 205.049 286.33 205.998 286.33C206.946 286.33 215.314 285.427 222.434 288.138C229.554 290.848 227.594 291.58 227.594 291.58L217.835 373.608H333.341L329.898 297.914C329.898 297.914 324.73 216.817 324.242 204.284C323.754 191.751 323.754 191.751 318.35 189.294C312.947 186.836 287.131 178.966 283.942 177.99C281.202 177.199 278.735 175.667 276.812 173.562C275.339 171.845 270.424 159.556 270.424 159.556C270.424 159.556 261.822 122.202 256.165 110.401C250.509 98.6 243.885 95.8983 232.563 100.082C221.241 104.266 217.582 110.157 215.124 115.804Z" fill="white" stroke="#263238" stroke-width="0.852254" stroke-linecap="round" stroke-linejoin="round"/>
<path d="M227.991 373.608H268.472C268.544 354.118 269.105 257.28 272.638 236.967C275.981 217.721 286.092 187.983 289.029 179.553L283.942 177.99C283.39 177.818 282.875 177.619 282.369 177.411C277.463 185.932 257.069 220.44 249.533 220.016C240.931 219.519 246.244 185.923 246.244 185.923C246.244 185.923 236.756 201.817 232.563 217.061C228.371 232.305 229.852 266.704 229.852 266.704V301.601L227.991 373.608Z" fill="white" stroke="#263238" stroke-width="0.852254" stroke-linecap="round" stroke-linejoin="round"/>
<path d="M226.301 134.952C226.943 136.37 226.862 137.798 226.121 138.132C225.38 138.467 224.259 137.59 223.618 136.162C222.976 134.735 223.048 133.316 223.789 132.982C224.53 132.647 225.66 133.56 226.301 134.952Z" fill="#263238"/>
<path d="M219.308 128.626C219.308 128.626 220.292 125.672 224.729 126.901" stroke="#263238" stroke-width="1.70451" stroke-linecap="round" stroke-linejoin="round"/>
<path d="M225.696 155.129C227.236 155.278 228.784 154.93 230.111 154.135C231.438 153.339 232.475 152.139 233.069 150.71" stroke="#263238" stroke-width="0.852254" stroke-linecap="round" stroke-linejoin="round"/>
<path d="M227.657 291.526L217.835 373.608H230.864C230.928 361.112 231.452 272.18 232.825 260.072C234.108 248.741 243.75 198.754 246.244 185.923C244.482 187.613 242.9 189.05 242.9 189.05C242.9 189.05 223.97 199.893 222.497 204.04C221.024 208.188 215.124 238.44 213.651 243.356C212.178 248.271 206.278 249.997 208.492 253.187C209.792 255.008 210.635 257.115 210.949 259.331C210.949 259.331 204.561 264.753 206.522 267.933C208.482 271.114 212.178 276.292 212.178 276.292C212.178 276.292 209.232 275.307 208.736 278.749C208.239 282.192 205.076 286.294 206.025 286.294C206.974 286.294 212.766 289.312 219.868 289.909C227.503 290.532 227.657 291.526 227.657 291.526Z" fill="#C6FF00" stroke="#263238" stroke-width="0.852254" stroke-linecap="round" stroke-linejoin="round"/>
<path d="M329.898 297.915C329.898 297.915 324.73 216.817 324.242 204.284C323.754 191.751 323.754 191.751 318.35 189.294C312.947 186.836 287.131 178.966 283.942 177.99C283.318 177.791 282.74 177.574 282.134 177.33C277.996 189.565 262.716 235.612 260.801 253.431C258.813 271.999 260.999 356.72 261.46 373.608H333.305L329.898 297.915Z" fill="#C6FF00" stroke="#263238" stroke-width="0.852254" stroke-linecap="round" stroke-linejoin="round"/>
<path d="M302.122 331.998L274.716 333.823V337.483L310.525 334.926" fill="#C6FF00"/>
<path d="M302.122 331.998L274.716 333.823V337.483L310.525 334.926" stroke="#263238" stroke-width="0.852254" stroke-linecap="round" stroke-linejoin="round"/>
<path d="M228.045 219.374C228.678 216.166 229.112 214.115 229.112 214.115" stroke="#263238" stroke-width="0.852254" stroke-linecap="round" stroke-linejoin="round"/>
<path d="M227.657 291.526C227.657 291.526 227.91 277.069 227.413 274.078C226.916 271.087 222.253 263.515 222.497 254.199C222.66 248.099 225.443 232.883 227.35 223.061" stroke="#263238" stroke-width="0.852254" stroke-linecap="round" stroke-linejoin="round"/>
<path d="M219.913 275.668C218.422 275.668 217.311 275.551 217.311 275.551" stroke="#263238" stroke-width="0.852254" stroke-linecap="round" stroke-linejoin="round"/>
<path d="M222.497 264.744C222.497 264.744 211.437 265.972 213.407 267.201C215.377 268.43 229.139 271.864 227.413 274.078C226.541 274.875 225.421 275.348 224.241 275.415" stroke="#263238" stroke-width="0.852254" stroke-linecap="round" stroke-linejoin="round"/>
<path d="M303.848 303.815C303.848 303.815 299.673 317.577 296.474 329.378C293.276 341.179 282.261 368.693 282.261 368.693L280.3 373.608H300.947C300.947 373.608 314.212 348.308 319.624 339.941C325.037 331.573 330.187 320.062 332.645 314.387L335.103 308.73L336.088 305.785L304.851 301.601L303.848 303.815Z" fill="white" stroke="#263238" stroke-width="0.852254" stroke-linecap="round" stroke-linejoin="round"/>
<path d="M295.002 223.702C295.002 223.702 299.917 260.072 300.423 263.515C300.929 266.957 296.493 271.864 297.477 274.575C298.462 277.285 308.321 285.418 308.04 286.123C307.76 286.827 302.393 288.833 303.125 291.77C303.857 294.707 305.339 298.899 305.339 298.899L303.866 303.815C303.866 303.815 308.537 306.526 318.115 307.99C327.694 309.453 336.793 308.975 337.29 307.746C337.787 306.517 336.305 294.481 336.305 292.511C336.305 290.541 336.305 288.083 338.275 285.879C340.244 283.674 341.22 280.719 339.504 276.536C338.427 273.85 337.684 271.043 337.29 268.177C337.29 268.177 343.19 260.045 341.708 255.644C340.226 251.244 333.847 245.325 333.847 243.853C333.847 242.38 331.633 204.998 329.672 197.399C327.712 189.8 305.827 186.095 305.827 186.095" fill="#C6FF00"/>
<path d="M295.002 223.702C295.002 223.702 299.917 260.072 300.423 263.515C300.929 266.957 296.493 271.864 297.477 274.575C298.462 277.285 308.321 285.418 308.04 286.123C307.76 286.827 302.393 288.833 303.125 291.77C303.857 294.707 305.339 298.899 305.339 298.899L303.866 303.815C303.866 303.815 308.537 306.526 318.115 307.99C327.694 309.453 336.793 308.975 337.29 307.746C337.787 306.517 336.305 294.481 336.305 292.511C336.305 290.541 336.305 288.083 338.275 285.879C340.244 283.674 341.22 280.719 339.504 276.536C338.427 273.85 337.684 271.043 337.29 268.177C337.29 268.177 343.19 260.045 341.708 255.644C340.226 251.244 333.847 245.325 333.847 243.853C333.847 242.38 331.633 204.998 329.672 197.399C327.712 189.8 305.827 186.095 305.827 186.095" stroke="#263238" stroke-width="0.852254" stroke-linecap="round" stroke-linejoin="round"/>
<path d="M337.76 260.072C337.76 260.072 306.793 269.903 313.887 270.147C320.98 270.391 335.022 264.247 335.022 264.247" stroke="#263238" stroke-width="0.852254" stroke-linecap="round" stroke-linejoin="round"/>
<path d="M309.992 279.237C309.992 279.237 335.058 284.153 331.859 285.138C328.66 286.123 315.152 283.665 314.411 283.665" stroke="#263238" stroke-width="0.852254" stroke-linecap="round" stroke-linejoin="round"/>
<path d="M307.037 299.64C307.037 299.64 337.516 302.351 336.043 303.571C334.57 304.791 326.7 303.083 326.7 303.083" stroke="#263238" stroke-width="0.852254" stroke-linecap="round" stroke-linejoin="round"/>
<path d="M248.611 298.628C249.664 300.619 250.831 302.547 252.108 304.402" stroke="#263238" stroke-width="0.852254" stroke-linecap="round" stroke-linejoin="round"/>
<path d="M236.268 271.936C236.268 271.936 241.545 284.803 246.704 294.987" stroke="#263238" stroke-width="0.852254" stroke-linecap="round" stroke-linejoin="round"/>
<path d="M241.418 290.939C241.418 290.939 248.539 311.152 252.506 317.477" stroke="#263238" stroke-width="0.852254" stroke-linecap="round" stroke-linejoin="round"/>
<path d="M219.064 85.3353C219.064 85.3353 211.437 92.9525 208.492 102.784C205.546 112.615 206.775 118.515 206.775 118.515L220.329 118.759L222.741 109.651L223.97 118.497L229.871 119.229L232.581 113.807C232.581 113.807 233.566 116.753 236.024 125.355C238.482 133.958 242.412 139.858 243.397 152.879C243.919 161.151 243.089 169.452 240.94 177.457C240.94 177.457 248.069 177.954 270.189 174.746C292.309 171.538 301.399 166.388 304.345 165.9C306.795 165.631 309.268 165.631 311.718 165.9C307.822 158.482 304.773 150.65 302.628 142.551C299.682 130.506 296.971 111.585 295.743 103.479C294.514 95.3742 288.622 85.0461 274.364 76.9319C260.105 68.8176 238.726 71.7723 231.352 75.9469C226.859 78.5193 222.727 81.6763 219.064 85.3353Z" fill="#263238" stroke="#263238" stroke-width="0.852254" stroke-linecap="round" stroke-linejoin="round"/>
<path d="M246.542 128.717C246.804 130.027 247.039 131.31 247.229 132.539" stroke="#999999" stroke-width="0.852254" stroke-linecap="round" stroke-linejoin="round"/>
<path d="M239.259 102.567C239.259 102.567 243.515 114.901 246.018 126.223" stroke="#999999" stroke-width="0.852254" stroke-linecap="round" stroke-linejoin="round"/>
<path d="M243.081 94.2899C244.039 93.9736 253.924 114.06 255.198 126.503" stroke="#999999" stroke-width="0.852254" stroke-linecap="round" stroke-linejoin="round"/>
<path d="M263.186 109.561C263.656 110.934 264.09 112.335 264.451 113.726" stroke="#999999" stroke-width="0.852254" stroke-linecap="round" stroke-linejoin="round"/>
<path d="M254.25 91.4074C257.451 96.4336 260.173 101.749 262.382 107.284" stroke="#999999" stroke-width="0.852254" stroke-linecap="round" stroke-linejoin="round"/>
<path d="M264.451 92.3652C264.451 92.3652 272.421 107.031 273.053 115.326" stroke="#999999" stroke-width="0.852254" stroke-linecap="round" stroke-linejoin="round"/>
<path d="M276.559 109.814C276.711 110.581 276.819 111.356 276.884 112.136" stroke="#999999" stroke-width="0.852254" stroke-linecap="round" stroke-linejoin="round"/>
<path d="M268.273 89.1756C268.273 89.1756 273.894 99.5127 276.071 107.735" stroke="#999999" stroke-width="0.852254" stroke-linecap="round" stroke-linejoin="round"/>
<path d="M278.646 97.9042C280.825 101.809 282.199 106.11 282.686 110.555" stroke="#999999" stroke-width="0.852254" stroke-linecap="round" stroke-linejoin="round"/>
<path d="M271.418 87.5762C273.635 90.0984 275.613 92.8208 277.327 95.7085" stroke="#999999" stroke-width="0.852254" stroke-linecap="round" stroke-linejoin="round"/>
<path d="M290.113 110.753C290.465 112.561 290.746 114.449 290.917 116.283" stroke="#999999" stroke-width="0.852254" stroke-linecap="round" stroke-linejoin="round"/>
<path d="M285.17 93.9556C286.927 98.4527 288.37 103.066 289.49 107.762" stroke="#999999" stroke-width="0.852254" stroke-linecap="round" stroke-linejoin="round"/>
<path d="M218.53 89.1756C218.53 89.1756 213.741 95.8712 211.835 102.567" stroke="#999999" stroke-width="0.852254" stroke-linecap="round" stroke-linejoin="round"/>
<path d="M217.663 101.184C217.127 102.248 216.67 103.35 216.299 104.482" stroke="#999999" stroke-width="0.852254" stroke-linecap="round" stroke-linejoin="round"/>
<path d="M224.585 89.4918C224.585 89.4918 221.485 94.064 219 98.6" stroke="#999999" stroke-width="0.852254" stroke-linecap="round" stroke-linejoin="round"/>
<path d="M229.048 92.9977C229.048 92.9977 225.154 101.844 223.952 105.756" stroke="#999999" stroke-width="0.852254" stroke-linecap="round" stroke-linejoin="round"/>
<path d="M230.846 103.949C230.548 104.853 230.259 105.802 230.006 106.714" stroke="#999999" stroke-width="0.852254" stroke-linecap="round" stroke-linejoin="round"/>
<path d="M234.47 94.2899C234.47 94.2899 233.078 97.5428 231.696 101.446" stroke="#999999" stroke-width="0.852254" stroke-linecap="round" stroke-linejoin="round"/>
<path d="M397.451 373.608H-9.25623" stroke="#263238" stroke-width="0.852254" stroke-linecap="round" stroke-linejoin="round"/>
</g>
<defs>
<clipPath id="clip0_131_7003">
<rect width="419.854" height="376.5" fill="white" transform="translate(-17)"/>
</clipPath>
</defs>
</svg>
